<?xml version="1.0" encoding="UTF-8"?>
<svg id="Layer_1" xmlns="http://www.w3.org/2000/svg" version="1.1" viewBox="0 0 479.68 84.25">
  <!-- Generator: Adobe Illustrator 29.4.0, SVG Export Plug-In . SVG Version: 2.1.0 Build 152)  -->
  <defs>
    <style>
      .st0 {
        fill: #f4ddb3;
      }

      .st1 {
        fill: #2d2523;
        fill-rule: evenodd;
      }

      .st2 {
        fill: #dc9f00;
      }

      .st3 {
        fill: #751f68;
      }
    </style>
  </defs>
  <path class="st1" d="M146.89,26.71c-.1-.13-.27-.19-.51-.19-2.83-.33-5.26-.97-7.19-1.91-1.81-.89-3.74-2.22-5.73-3.9,1.18-.13,2.55-.22,4.18-.25,2.57-.04,3.1-.11,3.27-.16.44-.13.53-.37.53-.55,0-.42-.25-.77-.73-1.03-.43-.24-.92-.36-1.45-.36-.41,0-1.27.16-2.63.49,0,0-2.9.57-3.84.76.07-.42.22-1.38.22-1.38,0,.02.13-.23.13-.23h0l.19-.48c0-.39-.41-.74-1.23-1.07,1.93-.47,3.64-.84,5.03-1.07.39,0,.42-.29.42-.34,0-.19-.1-.46-1.3-1.31-.85-.61-1.46-.91-1.88-.91-.07,0-.26,0-.38.15-.02.03-.16.52-.21.69-.74.69-3.04,1.79-6.85,3.29l-.28.11.34.45h.12c1.15-.07,2.37-.28,3.61-.63h0c0,.05.31,1.49.31,1.49.11.49.17.98.17,1.45,0,0,0,.02,0,.03-.35.06-4.11.65-4.11.65-1.94.34-3.57.56-4.84.65l-.51.04.37.35c.75.72,1.39,1.07,1.95,1.07.15,0,.52-.04,2.02-.35,0,0,1.94-.41,2.95-.63-2.37,3.36-5.74,6.07-10.1,8.02l-.13.06v.3s.02.29.38.29c.71,0,1.63-.23,2.81-.7,1.14-.47,2.17-1,3.05-1.59.88-.59,1.73-1.25,2.51-1.99.79-.74,1.52-1.52,2.19-2.32,0,0,.97-1.29,1.53-2.02-.04.89-.14,1.71-.34,2.41-.26.91-.37,1.47-.37,1.75,0,.51.21,1.08.62,1.71l.02.03.09.05.07.05s.31.13.31.13c.29,0,.51-.34.78-1.21.23-.71.34-1.58.34-2.57,0,0-.07-1.68-.11-2.58.63.75,1.78,1.92,3.56,3.61,2.23,2.1,3.72,3.12,4.57,3.12s2.84-.3,5.96-.92l.13-.03.04-.13c.02-.05.02-.1.02-.14,0-.11-.04-.18-.08-.23M136.66,27.48c-.87-.37-1.5-.55-1.93-.55-.08.01-1.6.56-1.6.56-1.19.36-2.3.61-3.29.75l-1.6.21-.54-.13-.94-.16c-.59,0-.65.34-.65.48.02.09.44,1.11.44,1.11.12.33.21.85.27,1.52l.09,2.37c0,.92-.06,1.59-.17,2.01l-.17,1.1c0,.65.13,1.27.38,1.86.32.71.54.99.8.99.27,0,.48-.23.69-2.43.18.02.39.04.39.04l2.17-.25,1.86-.24c.26,0,.47.08.63.25.2.19.37.47.52.81l.51,1.32.41,1.18.12.02.46.1.09-.07c1.24-1.01,1.88-2.77,1.88-5.22l-.11-3.58c0-1.56.18-2.03.29-2.17.34-.44.38-.62.38-.74,0-.37-.43-.71-1.39-1.12M135.02,36.09c-.17-.17-.35-.35-.35-.35-.37-.39-.75-.59-1.12-.59-.47,0-1.32.14-2.62.43-1.1.24-1.88.37-2.41.42,0-.4-.03-2.33-.04-2.7,1,0,2.12-.11,3.32-.3,2.04-.33,2.08-.39,2.15-.48-.02.02.12-.29.12-.29,0-.28-.2-.53-.61-.73-.35-.19-.74-.28-1.14-.28-.44,0-1.01.13-1.69.38l-1.31.42s-.51.12-.84.19c0-.22.02-.43.02-.67,0-.57-.03-1.22-.08-1.9.67-.02,1.35-.08,2.01-.22,1.85-.4,3.1-.6,3.72-.6.23,0,.42.06.57.19.15.12.22.26.24.44l.12,1.67.09,2.45c0,1.55-.08,2.22-.16,2.54"/>
  <path class="st1" d="M186.44,30.28c-3.14-.95-5.4-1.83-6.73-2.61-1.24-.74-2.98-2.07-5.16-3.92,1.47-.23,2.94-.4,4.33-.43l2.84-.11c.57-.05.68-.29.68-.48,0-.25-.21-.54-.68-.93-.42-.37-.92-.56-1.47-.56-1.02,0-2.65.31-4.81.89.17-.58.8-2.7.86-2.93.21-.03.89-.13.89-.13,0,0,1.64-.16,1.64-.16.61-.05,1.43-.19,1.43-.76,0-.4-.25-.86-1.43-.86-.37,0-1.02.11-1.88.31.29-.64,1.41-3.11,1.41-3.11l-.03-.07c-.12-.32-.54-.63-1.34-.98-.75-.33-1.29-.49-1.65-.48h-.08s-.06.05-.06.05c-.21.17-.25.36-.25.5l.25.76c.15.31.22.72.22,1.22,0,.31-.13,1.19-.37,2.56-.26.05-3.34.66-3.81.75.02-.36.06-1.25.06-1.25l.13-1.75-.11-.06c-.83-.58-1.66-.88-2.47-.88-.55,0-.59.34-.59.44,0,.08,0,.09.47.93.28.49.48,1.09.6,1.78,0,0,.17.75.26,1.15-.39.08-3.37.67-3.37.67l.34.3c.49.43,1.05.65,1.69.65.32,0,.82-.1,1.46-.28.05.39.32,2.34.36,2.68-1.99.39-3.87.67-5.59.83l-.4.04.24.32c.46.63,1.16.94,2.07.94.52,0,1.1-.09,1.74-.26,0,0,.59-.14,1.01-.24-1.12,3.18-3.51,6.16-7.16,8.85l-.11.08c.12-.34.25-.71.42-1.1,0,0,2.82-6,2.82-6h-.66s-1.96,2.49-1.96,2.49c-.86,1.16-1.47,1.9-1.82,2.2-.32.27-.65.42-.97.43-.51.03-.78.19-.78.48,0,.42.17,1.17.52,2.29.38,1.24.76,1.79,1.23,1.79.6,0,.75-.87.8-1.16.07-.36.18-.78.34-1.26l.38.28.11-.03c2.48-.71,4.52-2.27,6.1-4.59.15.78.24,1.67.24,2.71l-.09,2.52c0,.93.34,1.81,1.01,2.62.7.82,2.13,1.22,4.37,1.22,1.4,0,2.75-.15,4.02-.45,1.39-.32,2.06-.8,2.06-1.47,0-.32-.23-.58-.69-.77l-.94-.26c-.26,0-.56.1-.9.29-.28.15-.83.31-1.62.48-.8.16-1.67.24-2.6.24-.99,0-1.74-.1-2.23-.29-.43-.18-.68-.58-.75-1.22,0,0-.1-1.29-.13-1.81.25.02.59.04.59.04.3,0,1.11-.11,2.47-.34,2.09-.36,2.25-.55,2.33-.66l.23-.52c0-.38-.37-.59-.65-.71.14-.31.52-1.15.52-1.15.12-.27.32-.5.59-.68.4-.28.56-.47.56-.66,0-.33-.36-.67-1.15-1.11-.74-.42-1.23-.62-1.56-.62-.09.02-1.35.58-1.35.58l-1.42.48c-.53.14-1.04.21-1.51.21,0,0-.21-.03-.42-.07.32-.4,1.03-1.29,1.03-1.29,1.09-1.4,1.09-1.45,1.09-1.55,0-.19-.17-.43-.8-.9.68-.14,2.32-.46,2.51-.5.16.18,3.03,3.4,3.03,3.4,1.08,1.2,2,2.14,2.83,2.88.86.75,1.42,1.18,1.72,1.3,0,0,1.01.17,1.01.17.32,0,1.16-.11,2.59-.32,2.2-.33,2.3-.49,2.3-.74,0-.1-.05-.24-.29-.32M162.26,34c.07-.05.13-.11.19-.16.02,0,.04-.01.06-.02h0s-.26.18-.26.18ZM170.2,29.42c.41,0,.99-.08,1.76-.24l1.72-.28c.07,0,.1.01.11.1,0,.02.07.68.07.68l-.09,1.01-.2.6s-.12.14-.82.31l-1.38.33s-.77.1-1.17.15v-2.65ZM171.31,22.95c0-.42-.05-2.48-.05-2.78.31-.06,2.96-.57,3.5-.67-.12.52-.62,2.71-.68,2.95-.24.04-2.35.43-2.77.5M165.14,19.78c.33,0,.9-.14.9-1.08,0-.76-.35-1.39-1.04-1.86-.66-.46-1.53-.69-2.59-.69l-1.05.11.27.32c2.19,2.88,3.05,3.21,3.51,3.21M162.39,25.54c.38,0,1.02-.16,1.02-1.21,0-.65-.25-1.22-.75-1.7-.49-.48-1.52-.79-3.18-.94l-.4-.04.17.36c1.12,2.38,2.15,3.54,3.14,3.54"/>
  <path class="st1" d="M219.6,19.57c-1.01-.75-1.74-1.11-2.23-1.11-.09,0-.25.03-1.16.38-.58.23-2.28.52-5.02.88.08-2.19.23-3.71.43-4.46l.14-.71c0-.45-.33-.85-1.01-1.25-.62-.35-1.36-.6-2.21-.74h-.06s-.06.01-.06.01c-.49.19-.59.49-.59.72l.04.28c.43.62.75,1.31.96,2.15.22.82.33,2.27.34,4.27-2.13.33-3.65.5-4.47.5l-1.99-.19-2.07-.22-.04.04c-.11.06-.23.2-.23.48l.12.46c.45.45.79.96,1.06,1.57.28.63.51,2,.71,4.07.22,2.3.69,3.37,1.49,3.37.38,0,.55-.51.64-1.8.33-.03,4.38-.4,4.82-.43,0,.45-.09,4.52-.09,4.52l-.15,4.73c0,.38.12,1.16.37,2.41.34,1.7.55,2.01.85,2.01h.09l.14-.11c.34-.31.79-1.18.79-5.17,0,0-.1-7.45-.12-8.52,2.85-.22,4.95-.33,6.19-.33.38,0,1.17,0,1.17-.47,0-.42-.21-.92-.98-1.17,1.31-2.02,2.24-3.26,2.75-3.64.79-.58.94-.82.94-1.02,0-.19-.12-.46-1.55-1.51M217.08,21.47c0,.38-.12,1.13-.36,2.25-.22,1.05-.58,1.71-1.07,1.96-.5.25-2.04.49-4.54.73,0-.45.03-5,.03-5.35,2.31-.37,3.97-.56,4.9-.56.59,0,.78.13.84.21.14.16.2.41.2.76M209.18,21.3v5.27c-.35.03-4.41.42-4.82.46,0-1.95-.12-3.63-.33-5.02.38-.05,4.71-.65,5.15-.71"/>
  <path class="st1" d="M247.42,16.53c1.36,1.1,2.37,1.63,3.08,1.63.43,0,.94-.27.94-1.55,0-.52-.3-1.01-.88-1.47-.56-.44-1.16-.71-1.8-.79-.6-.09-1.61-.16-3.08-.2h-.23s-.06.26-.06.26c0,.22.16.59,2.03,2.12M263.18,35.89c-3.48-.35-6.29-1.01-8.35-1.96-2.01-.94-3.85-2.25-5.47-3.89.31-.69.64-1.64.98-2.89l.73-2.54c.12-.33.26-.57.4-.72l.34-.6c0-.24-.22-.51-.77-.94-.3-.24-.62-.37-.94-.53,2.4-.43,4.94-.79,7.6-1.07.58-.34.81-.64.81-.94,0-.36-.31-.66-.94-.94-.57-.24-1.17-.37-1.81-.37-1.02,0-2.04.28-3.06.83-3.58,1.53-8.12,2.36-13.48,2.44h-.42s.23.35.23.35c.56.82,1.43,1.24,2.59,1.24,1.23,0,3.63-.43,7.09-1.27-.03.08-.11.12-.11.21,0,.02.11,1.1.11,1.1,0,1.06-.35,2.74-1.02,4.95-.38-.43-1.53-1.76-1.53-1.76-.82-1.06-1.46-1.71-1.95-2-.47-.3-.96-.46-1.42-.46-.33,0-1.35,0-1.35.65l.09.37h.08c1.78.81,3.6,2.41,5.4,4.71-1.83,2.41-5.32,4.01-10.42,4.73l-.03.44c.85.26,1.64.39,2.35.39.96,0,2.47-.31,4.49-.91,1.96-.58,3.61-1.65,4.94-3.11,1.55,1.75,3.06,3.24,4.48,4.4,1.51,1.22,2.6,1.81,3.32,1.81.55,0,1.7-.2,3.5-.6l3.52-.69v-.45Z"/>
  <path class="st1" d="M298.07,35.23c-1.33-.32-2.6-.88-3.79-1.67-1.18-.8-2.33-1.85-3.42-3.11-1.07-1.25-2.13-2.75-3.14-4.45,0-.12.06-1.24.08-1.52,1.2-.23,2.89-.45,5.1-.65l4.04-.41c.66-.11.76-.46.76-.67,0-.36-.33-.71-1.05-1.08-.65-.35-1.44-.53-2.34-.53-.08,0-.21,0-2.19.73-1.19.44-2.63.76-4.23.96.06-2.9.22-4.81.47-5.63.29-.92.42-1.49.42-1.79,0-.42-.18-.76-.53-.99-.29-.21-.76-.43-1.39-.62-.63-.2-1.26-.3-1.88-.3-.39,0-.62.21-.62.56,0,.17.1.33.3.5.82.97,1.25,2.78,1.25,5.34,0,0-.08,2.94-.09,3.29-.35.05-7.86,1.07-7.86,1.07l.24.31c.58.74,1.45,1.11,2.58,1.11.66,0,1.62-.15,2.85-.43,0,0,1.5-.33,2.15-.46-.48,5.73-3.39,9.68-8.67,11.71l.07.44c1.73.09,3.68-.67,5.79-2.25,2-1.49,3.46-3.8,4.36-6.81,1.26,2.27,2.68,4.45,4.27,6.45,2.32,2.93,3.25,3.26,3.75,3.26,1.67,0,4.12-.29,7.27-.87v-.44s-4.54-1.05-4.54-1.05Z"/>
  <path class="st1" d="M325.99,15.61c.36.26.6.48.75.67-.2.25-1.95,2.49-1.95,2.49l.64-.16c.9-.22,1.68-.74,2.36-1.48.16.18.48.55.48.55.36.44.71.7,1.06.8l.11.03.09-.07c.29-.22.44-.48.44-.78,0-.53-.4-1.12-1.14-1.79.16-.19.55-.63.55-.63.41-.47.62-.95.62-1.41s-.55-.75-1.79-.94l-.3-.05.04.3c.02.11.03.23.03.34,0,.53-.2,1.09-.56,1.67-.24-.12-.79-.39-.79-.39-.54-.28-1.02-.41-1.42-.39l-.39.02.21.33c.15.24.47.52.95.87M324.39,23.6l.64-.11c.77-.15,1.73-.82,2.89-1.95.23.24,1.15,1.2,1.15,1.2l.64.14.03-.19.09-.49c0-.48-.38-1.05-1.07-1.73.12-.16.34-.46.34-.46.25-.32.38-.64.38-.96,0-.05,0-.1-.01-.16v-.1s-.09-.06-.09-.06c-.39-.28-.69-.42-.94-.42s-.57.15-.69.85c-.05.32-.11.47-.15.56-.53-.33-1-.51-1.43-.51l-.98.13.5.33c.57.4.94.75,1.17,1.04-.2.25-.89,1.07-.89,1.07l-1.58,1.82ZM339.91,23.37c-.69-.71-1.28-1.06-1.81-1.06l-1.39.28c-.65.15-1.52.24-2.52.27.11-.5.8-3.74.8-3.74.38-1.69.6-2.29.71-2.5.16-.29.35-.51.56-.65.32-.23.44-.41.44-.58s-.1-.4-1.25-1.11c-1.09-.69-1.32-.75-1.44-.75-.07,0-.14,0-1.06.4-.56.23-1.35.46-2.36.67l-.48.1.39.3c.49.38.98.58,1.46.58l.83-.13.72-.13c.12,0,.35,0,.35.63,0,.33-.09.7-.2,1.09-.8,0-1.86.1-3.18.29l-.37.05.22.3c.33.44.82.67,1.46.67l1.52-.12s.07.01.14.02c-.07.34-.27,1.3-.32,1.56-.3.03-3.15.28-3.15.28l.08.27c.11.37.43.81,1.31.81l.99-.09s.33-.04.57-.06c-.07.41-.28,1.71-.32,1.96-.32.04-8.86,1-9.27,1.05-.04-.32-.2-1.48-.23-1.78.29-.07.92-.21.92-.21l1.08-.28.12-.09.12-.08c.16-.1.25-.23.25-.39,0-.06-.01-.12-.04-.19l-.02-.05-.05-.04c-.24-.19-.52-.29-.83-.29-.26,0-.62.1-1.09.31-.36.15-.56.2-.72.22-.05-.3-.23-1.25-.28-1.52.27-.08,1.06-.33,1.06-.33.52-.16,1.21-.44,1.21-.93,0-.19-.08-.64-.79-.64-.32,0-.7.11-1.18.33,0,0-.38.13-.63.22-.04-.27-.11-.65-.11-.65,0,0-.06-.67-.08-.9.21-.13,2.42-1.46,2.42-1.46v-.14c-.04-.36-.29-.68-.76-.93-.41-.24-.81-.36-1.19-.36-.57,0-.64.31-.64.44,0,.64-.27,1.26-.76,1.83-1.31.01-1.84.17-1.84.59l.35.52c.77.7,1.52,3.08,2.24,7.03-.38.07-2.77.54-3.02.58-.45-.78-.9-1.24-1.36-1.34l-.29-.06v.29c.06,1.13-.12,2.02-.53,2.64-.46.7-.68,1.26-.68,1.69,0,1.05.53,1.21.85,1.21.46,0,.94-.36,1.48-1.1.47-.65.71-1.41.75-2.24,1.04-.27,3.82-.66,8.35-1.18,4.69-.54,7.51-.81,8.4-.81l1.08.05s.21.04.21.04c-.01.06-.11.46-1.38,1.65l.22.38,2.31-.66s1-.08,1-.08c.77,0,1.65-.07,1.65-.64,0-.15-.08-.37-1.02-1.33M336.8,30.18c-.58-.39-1.3-.59-2.13-.59-.59,0-1.45.13-2.65.39-1.14.25-1.98.38-2.5.38-.02,0-.54.05-.54.05-.07,0-.13-.04-.18-.11,1-.88,2.05-1.66,3.13-2.29.66-.27.84-.63.84-.93,0-.06,0-.11-.01-.16l-.02-.08-.06-.05c-1.1-.88-2.12-1.33-3.02-1.33-.07,0-2.32.74-2.32.74l-2.39.56c-.81.13-1.65.19-2.5.18h-.51s.34.38.34.38c.66.74,1.45,1.1,2.35,1.06.06,0,4.33-1.34,4.51-1.4h.37c.06,0,.08.19.08.31,0,.13-.17.64-1.44,2.26-.48-.36-.99-.57-1.52-.57s-.58.3-.58.43c0,.15.1.31.63.77.22.19.35.33.43.45-4.66.59-8,.95-9.91,1.05h-.21s-.03.27-.03.27c0,.18.11.42.87.96.57.39,1.05.57,1.47.57.2,0,.79-.08,3.68-.72,2-.45,3.5-.69,4.52-.76.14.8.22,1.65.22,2.55,0,2.3-.45,3.47-1.33,3.47-.39,0-1.37-.17-2.92-.51l-.17.41c1.62,1.04,2.64,2.01,3.03,2.88l.09.2.2-.09c1.89-.8,2.84-2.75,2.84-5.79,0-.86-.11-1.97-.3-3.26.42-.02,3.58-.12,3.58-.12l4.27.14c.64,0,.7-.38.7-.55,0-.36-.31-.73-.94-1.15"/>
  <path class="st1" d="M124.37,62.39c0,.88-.05,1.48-.21,1.73-.14.23-.42.32-.97.35l-1.11.07v.7c1.2-.05,2.29-.06,3.42-.06,1.06,0,2.15.02,3.35.06v-.7l-1.11-.07c-.56-.02-.83-.12-.97-.35-.16-.25-.21-.85-.21-1.73v-9.76c0-.88.02-1.62.09-2.31h3.58c.69,0,.88.21.92.76l.09,1.82h.71c0-1.25.05-2.51.16-3.72-.83,0-1.66.02-2.49.02-.83.02-1.66.05-2.49.05h-3.35c-1.66,0-3.33-.07-4.99-.07.12,1.2.16,2.47.16,3.72h.72l.09-1.82c.05-.55.23-.76.92-.76h3.58c.07.69.09,1.43.09,2.31v9.76Z"/>
  <path class="st1" d="M133.19,62.8c0,.62-.02,1.08-.12,1.34-.09.21-.34.3-.74.32l-1.04.07v.7c.81-.02,1.73-.06,2.87-.06s2.06.04,2.86.06v-.7l-1.04-.07c-.39-.02-.64-.12-.74-.32-.09-.25-.12-.72-.12-1.34v-4.89c0-.94,1.43-2.17,2.84-2.17,1.57,0,2.66,1.01,2.66,2.93v6.56c.53-.02,1.2-.06,1.85-.06s1.32.04,1.89.06v-.7l-.95-.07c-.39-.02-.65-.12-.74-.32-.09-.25-.11-.72-.11-1.34v-4.45c0-2.51-1.11-4.01-3.81-4.01-.92,0-1.36.14-1.87.58l-1.71,1.48h-.05v-7.8l-.21-.19c-1.15.46-2.38.67-3.6.85v.65h1.29c.51,0,.58.42.58.95v11.95Z"/>
  <path class="st1" d="M149.74,55.1c1.66,0,2.45,1.76,2.45,3.9-1.66.09-3.6.14-5.49-.07-.12-2.52,1.27-3.84,3.04-3.84M149.85,54.34c-.79,0-1.45.25-2.26.62-.51.23-.99.58-1.43.92-1.06.83-1.66,2.17-1.66,4.41,0,3.12,1.85,5.33,5.33,5.33,1.57,0,3.53-1.02,3.7-1.29l.46-.79-.3-.23c-.88.53-1.75,1.09-2.86,1.09-2.84,0-4.18-1.85-4.18-4.55h3.37c1.39,0,2.8-.09,4.18-.32.05-.32.05-.65.05-.97,0-2.61-1.87-4.22-4.39-4.22"/>
  <path class="st1" d="M174.11,63.23l-.21-.23c-1.06.79-3.02,1.39-4.69,1.39-4.57,0-7.6-2.95-7.6-7.53,0-3.93,2.29-7.09,6.63-7.09.85,0,1.85.14,2.59.39,1.06.39,1.99.78,1.99,1.43v1.66h.71c0-1.2.21-2.42.44-3.51-1.11-.39-3.19-.95-5.33-.95-2.58,0-4.94.78-6.67,2.21-1.78,1.46-2.82,3.56-2.82,6.21,0,5.24,3.74,8.4,9.28,8.4,1.41,0,3.69-.44,5.03-1.25l.65-1.15Z"/>
  <path class="st1" d="M176.35,62.8c0,.62-.02,1.08-.11,1.34-.1.21-.35.3-.74.32l-1.04.07v.7c.81-.02,1.73-.06,2.86-.06s2.05.04,2.86.06v-.7l-1.04-.07c-.39-.02-.65-.12-.74-.32-.09-.25-.11-.72-.11-1.34v-4.89c0-.94,1.43-2.17,2.84-2.17,1.57,0,2.66,1.01,2.66,2.93v6.56c.53-.02,1.2-.06,1.85-.06s1.31.04,1.89.06v-.7l-.95-.07c-.39-.02-.65-.12-.74-.32-.09-.25-.11-.72-.11-1.34v-4.45c0-2.51-1.11-4.01-3.81-4.01-.92,0-1.36.14-1.87.58l-1.71,1.48h-.05v-7.8l-.21-.19c-1.16.46-2.38.67-3.6.85v.65h1.29c.51,0,.58.42.58.95v11.95Z"/>
  <path class="st1" d="M191.4,54.43l-.21-.09c-.85.37-2.24.81-3.6.95v.65h.85c.48,0,.72.07.85.25.11.18.16.69.16,1.43v5.19c0,.62-.02,1.08-.12,1.34-.09.21-.35.3-.74.32l-1.06.07v.7c.83-.02,1.75-.06,2.89-.06s2.05.04,2.89.06v-.7l-1.06-.07c-.39-.02-.65-.12-.74-.32-.09-.25-.12-.72-.12-1.34v-8.37ZM190.32,49.3c-.67,0-1.27.62-1.27,1.29s.6,1.27,1.27,1.27,1.29-.6,1.29-1.27-.62-1.29-1.29-1.29"/>
  <path class="st1" d="M197.05,57.91c0-.94,1.43-2.17,2.84-2.17,1.57,0,2.66,1.01,2.66,2.93v6.56c.53-.02,1.2-.06,1.85-.06s1.32.04,1.89.06v-.7l-.95-.07c-.39-.02-.65-.12-.74-.32-.09-.25-.12-.72-.12-1.34v-4.45c0-2.51-1.11-4.01-3.81-4.01-.92,0-1.36.14-1.87.58l-1.71,1.48h-.05v-1.96l-.21-.09c-.85.37-2.24.81-3.6.95v.65h.85c.48,0,.71.07.85.25.12.18.16.69.16,1.43v5.19c0,.62-.02,1.08-.12,1.34-.09.21-.34.3-.74.32l-1.04.07v.7c.81-.02,1.73-.06,2.86-.06s2.05.04,2.86.06v-.7l-1.04-.07c-.39-.02-.65-.12-.74-.32-.09-.25-.12-.72-.12-1.34v-4.89Z"/>
  <path class="st1" d="M211.66,55.1c1.66,0,2.45,1.76,2.45,3.9-1.66.09-3.6.14-5.5-.07-.12-2.52,1.27-3.84,3.05-3.84M211.78,54.34c-.79,0-1.45.25-2.26.62-.51.23-.99.58-1.43.92-1.06.83-1.66,2.17-1.66,4.41,0,3.12,1.85,5.33,5.33,5.33,1.57,0,3.53-1.02,3.7-1.29l.46-.79-.3-.23c-.88.53-1.76,1.09-2.87,1.09-2.84,0-4.18-1.85-4.18-4.55h3.37c1.39,0,2.79-.09,4.18-.32.04-.32.04-.65.04-.97,0-2.61-1.87-4.22-4.39-4.22"/>
  <path class="st1" d="M217.13,61.87c0,1.08-.02,2.19-.26,3.21,1.13.39,2.12.55,3.23.55,2.56,0,5.1-1.34,5.1-3.88,0-1.8-1.29-2.49-4.04-2.95-1.76-.3-2.52-.83-2.52-1.82,0-.79.3-1.87,2.27-1.87,1.32,0,2.68.7,2.68,1.9v.53h.64c.02-.92.05-1.78.12-2.61-.9-.32-1.89-.58-2.98-.58-2.17,0-4.34.88-4.34,3.37,0,1.41.85,2.1,1.96,2.52,1.11.42,2.38.67,3.39.93.72.18,1.11.79,1.11,1.52,0,1.25-1.25,2.1-2.7,2.1-1.34,0-2.98-.53-2.98-1.96v-.95h-.69Z"/>
  <path class="st1" d="M231.12,55.1c1.66,0,2.45,1.76,2.45,3.9-1.66.09-3.6.14-5.49-.07-.12-2.52,1.27-3.84,3.05-3.84M231.24,54.34c-.79,0-1.45.25-2.26.62-.51.23-.99.58-1.43.92-1.07.83-1.66,2.17-1.66,4.41,0,3.12,1.85,5.33,5.34,5.33,1.57,0,3.53-1.02,3.69-1.29l.46-.79-.3-.23c-.88.53-1.75,1.09-2.86,1.09-2.84,0-4.18-1.85-4.18-4.55h3.37c1.39,0,2.79-.09,4.18-.32.04-.32.04-.65.04-.97,0-2.61-1.87-4.22-4.39-4.22"/>
  <path class="st1" d="M242.36,60.23c0,4.22,2.31,5.4,6.23,5.4,4.66,0,6.53-1.99,6.53-6.92v-6.67c0-.88.05-1.48.21-1.73.14-.23.41-.3.97-.34l1.02-.07v-.7c-1.02.02-1.85.07-2.77.07-.83,0-1.75-.04-2.68-.07v.7l1.02.07c.55.05.83.12.97.34.16.25.21.85.21,1.73v7.38c0,3.83-2.26,4.78-4.76,4.78-3.05,0-4.76-.95-4.76-4.22v-7.93c0-.88.05-1.48.21-1.73.14-.23.42-.32.97-.34l1.11-.07v-.7c-1.2.05-2.29.07-3.35.07-1.13,0-2.22-.02-3.42-.07v.7l1.11.07c.56.02.83.12.97.34.16.25.21.85.21,1.73v8.19Z"/>
  <path class="st1" d="M260.34,57.91c0-.94,1.43-2.17,2.84-2.17,1.57,0,2.66,1.01,2.66,2.93v6.56c.53-.02,1.2-.06,1.85-.06s1.32.04,1.89.06v-.7l-.95-.07c-.39-.02-.65-.12-.74-.32-.09-.25-.11-.72-.11-1.34v-4.45c0-2.51-1.11-4.01-3.81-4.01-.92,0-1.36.14-1.87.58l-1.71,1.48h-.05v-1.96l-.21-.09c-.85.37-2.24.81-3.6.95v.65h.86c.49,0,.71.07.85.25.12.18.16.69.16,1.43v5.19c0,.62-.02,1.08-.12,1.34-.09.21-.35.3-.74.32l-1.04.07v.7c.81-.02,1.73-.06,2.87-.06s2.05.04,2.86.06v-.7l-1.04-.07c-.39-.02-.64-.12-.74-.32-.09-.25-.12-.72-.12-1.34v-4.89Z"/>
  <path class="st1" d="M273.45,54.43l-.21-.09c-.85.37-2.24.81-3.6.95v.65h.85c.48,0,.72.07.85.25.12.18.16.69.16,1.43v5.19c0,.62-.02,1.08-.12,1.34-.09.21-.35.3-.74.32l-1.06.07v.7c.83-.02,1.75-.06,2.89-.06s2.05.04,2.88.06v-.7l-1.06-.07c-.39-.02-.64-.12-.74-.32-.09-.25-.12-.72-.12-1.34v-8.37ZM272.37,49.3c-.67,0-1.27.62-1.27,1.29s.6,1.27,1.27,1.27,1.29-.6,1.29-1.27-.62-1.29-1.29-1.29"/>
  <path class="st1" d="M285.29,56.81c.32-.69.72-1.5,1.29-1.55l.72-.05v-.65c-.72.02-1.46.07-2.17.07s-1.45-.05-2.17-.07v.65l.95.05c.69.02.74.69.12,2.29l-.97,2.45c-.44,1.08-.95,2.17-1.43,3.23l-2.75-6.65c-.39-.97-.23-1.29.37-1.32l1.13-.05v-.65c-.9.02-1.78.07-2.68.07s-1.8-.05-2.7-.07v.65l.78.05c.44.02.58.44.72.76l3.97,9.31h1.16c.32-.79.55-1.66.95-2.52l2.72-6Z"/>
  <path class="st1" d="M292.77,55.1c1.66,0,2.45,1.76,2.45,3.9-1.66.09-3.6.14-5.49-.07-.12-2.52,1.27-3.84,3.05-3.84M292.89,54.34c-.79,0-1.45.25-2.26.62-.51.23-.99.58-1.43.92-1.06.83-1.66,2.17-1.66,4.41,0,3.12,1.85,5.33,5.33,5.33,1.57,0,3.53-1.02,3.7-1.29l.46-.79-.3-.23c-.88.53-1.75,1.09-2.86,1.09-2.84,0-4.18-1.85-4.18-4.55h3.37c1.39,0,2.79-.09,4.18-.32.04-.32.04-.65.04-.97,0-2.61-1.87-4.22-4.39-4.22"/>
  <path class="st1" d="M299.69,62.8c0,.62-.02,1.08-.12,1.34-.09.21-.34.3-.74.32l-1.06.07v.7c.83-.02,1.75-.06,2.88-.06s2.05.04,3.26.06v-.7l-1.2-.07c-.53-.02-.88-.12-.97-.32-.09-.25-.12-.72-.12-1.34v-3.96c0-1.48,1.02-2.54,2.03-2.54.83,0,1.32.51,1.57,1.06h.48l.21-2.79c-.19-.11-.67-.23-1.06-.23-.6,0-1.39.28-1.94.95l-1.25,1.48h-.05v-2.33l-.21-.09c-.86.37-2.24.81-3.6.95v.65h.85c.48,0,.72.07.86.25.11.18.16.69.16,1.43v5.19Z"/>
  <path class="st1" d="M306.66,61.87c0,1.08-.02,2.19-.25,3.21,1.13.39,2.13.55,3.23.55,2.56,0,5.1-1.34,5.1-3.88,0-1.8-1.29-2.49-4.04-2.95-1.75-.3-2.52-.83-2.52-1.82,0-.79.3-1.87,2.26-1.87,1.32,0,2.68.7,2.68,1.9v.53h.65c.02-.92.04-1.78.12-2.61-.9-.32-1.89-.58-2.98-.58-2.17,0-4.34.88-4.34,3.37,0,1.41.85,2.1,1.96,2.52,1.11.42,2.38.67,3.39.93.72.18,1.11.79,1.11,1.52,0,1.25-1.25,2.1-2.7,2.1-1.34,0-2.98-.53-2.98-1.96v-.95h-.69Z"/>
  <path class="st1" d="M319.15,54.43l-.21-.09c-.85.37-2.24.81-3.6.95v.65h.85c.49,0,.72.07.86.25.11.18.16.69.16,1.43v5.19c0,.62-.02,1.08-.12,1.34-.09.21-.34.3-.74.32l-1.06.07v.7c.83-.02,1.75-.06,2.88-.06s2.05.04,2.89.06v-.7l-1.06-.07c-.4-.02-.65-.12-.74-.32-.09-.25-.12-.72-.12-1.34v-8.37ZM318.07,49.3c-.67,0-1.27.62-1.27,1.29s.6,1.27,1.27,1.27,1.29-.6,1.29-1.27-.63-1.29-1.29-1.29"/>
  <path class="st1" d="M323.09,56.35v6.65c0,1.87,1.04,2.45,2.26,2.45.48,0,1.29-.05,1.5-.28l1.11-1.22-.3-.39c-.32.18-.76.44-1.36.44-.97,0-1.27-.53-1.27-1.59v-6.05h2.95l.21-1.25-3.16.14v-.88c0-.97.11-2.26.25-3.28l-.28-.25c-.39.25-1.13.62-1.96.88.07.63.09,1.22.09,1.82v1.62l-1.8.81v.48l1.76-.09Z"/>
  <path class="st1" d="M334.52,63.18l-2.65-6.42c-.49-1.25-.09-1.48.56-1.5l.87-.05v-.65c-.9.02-1.78.07-2.68.07s-1.78-.05-2.68-.07v.65l.41.05c.51.05.83.25,1.2,1.13l3.81,9.33-.53,1.41c-.44,1.06-1.18,2.93-2.52,3.03-.32.02-.9-.25-1.18-.53h-.3l-.56,1.73c.25.16.76.34,1.16.34,1.94,0,2.77-1.16,3.51-2.84l4.69-10.8c.88-2.03,1.39-2.75,1.94-2.79l.65-.05v-.65c-.74.02-1.46.07-2.2.07s-1.45-.05-2.19-.07v.65l.6.05c.83.07,1.18.32.83,1.18l-2.75,6.74Z"/>
  <path class="st1" d="M349.09,65.63c3.53,0,6.05-2.49,6.05-6.03,0-2.95-2.28-5.26-5.24-5.26-3.72,0-5.89,2.42-5.89,5.89,0,3.19,2.17,5.5,5.08,5.4M349.36,55.1c2.22,0,3.63,2.54,3.63,5.52,0,2.15-.9,4.25-3,4.25-2.95,0-3.83-3.21-3.83-5.64,0-2.15.76-4.13,3.21-4.13"/>
  <path class="st1" d="M363.06,48.61c-.32-.14-.69-.25-1.04-.25-.65,0-1.48.28-2.08.97l-1.34,1.52c-.67.76-.97,1.8-.97,3.33v.97l-1.59.72v.51l1.59-.09v6.53c0,.62-.02,1.08-.12,1.34-.09.21-.34.3-.74.32l-1.06.07v.7c.83-.02,1.75-.06,2.88-.06s2.05.04,2.88.06v-.7l-1.06-.07c-.39-.02-.65-.12-.74-.32-.09-.25-.11-.72-.11-1.34v-6.53h2.86l.16-1.22-3.02.09v-1.96c0-2.63.25-3.3,1.69-3.3.58,0,1.11.25,1.52.64l.28-.14v-1.78Z"/>
  <path class="st1" d="M383.67,52.04c0-.87.05-1.48.21-1.73.14-.23.42-.32.97-.34l1.11-.07v-.7c-1.2.05-2.29.07-3.35.07-1.13,0-2.22-.02-3.42-.07v.7l1.11.07c.56.02.83.12.97.34.16.25.21.85.21,1.73v4.1c-.28.03-.9.05-1.92.05h-5.4c-1.01,0-1.64-.02-1.91-.05v-4.1c0-.87.04-1.48.21-1.73.14-.23.42-.32.97-.34l1.11-.07v-.7c-1.2.05-2.29.07-3.35.07-1.13,0-2.22-.02-3.42-.07v.7l1.11.07c.56.02.83.12.97.34.16.25.21.85.21,1.73v10.35c0,.88-.05,1.48-.21,1.73-.14.23-.41.32-.97.35l-1.11.07v.7c1.2-.05,2.28-.06,3.42-.06,1.06,0,2.15.02,3.35.06v-.7l-1.11-.07c-.55-.02-.83-.12-.97-.35-.16-.25-.21-.85-.21-1.73v-5.14c.28-.02.9-.05,1.91-.05h5.4c1.02,0,1.64.02,1.92.05v5.14c0,.88-.05,1.48-.21,1.73-.14.23-.42.32-.97.35l-1.11.07v.7c1.2-.05,2.29-.06,3.42-.06,1.06,0,2.15.02,3.35.06v-.7l-1.11-.07c-.55-.02-.83-.12-.97-.35-.16-.25-.21-.85-.21-1.73v-10.35Z"/>
  <path class="st1" d="M391.58,65.63c3.53,0,6.05-2.49,6.05-6.03,0-2.95-2.28-5.26-5.24-5.26-3.72,0-5.89,2.42-5.89,5.89,0,3.19,2.17,5.5,5.08,5.4M391.86,55.1c2.22,0,3.63,2.54,3.63,5.52,0,2.15-.9,4.25-3,4.25-2.96,0-3.84-3.21-3.84-5.64,0-2.15.76-4.13,3.21-4.13"/>
  <path class="st1" d="M401.65,57.91c0-.94,1.43-2.17,2.84-2.17,1.57,0,2.66,1.01,2.66,2.93v6.56c.53-.02,1.2-.06,1.85-.06s1.32.04,1.89.06v-.7l-.95-.07c-.39-.02-.65-.12-.74-.32-.09-.25-.12-.72-.12-1.34v-4.45c0-2.51-1.11-4.01-3.81-4.01-.92,0-1.36.14-1.87.58l-1.71,1.48h-.05v-1.96l-.21-.09c-.85.37-2.24.81-3.6.95v.65h.85c.49,0,.72.07.86.25.12.18.16.69.16,1.43v5.19c0,.62-.03,1.08-.12,1.34-.09.21-.35.3-.74.32l-1.04.07v.7c.81-.02,1.73-.06,2.87-.06s2.06.04,2.86.06v-.7l-1.04-.07c-.39-.02-.65-.12-.74-.32-.09-.25-.11-.72-.11-1.34v-4.89Z"/>
  <path class="st1" d="M422.4,56.44l.58-.94-.09-.28-3.28.09c-.74-.67-1.8-.97-2.82-.97-.88,0-2.29.3-3.35.99-1.04.67-1.75,1.66-1.75,3.14,0,2.4,1.99,3.07,2.72,3.09v.05l-1.78,1.36c-.21.28-.35.62-.35.97,0,.67.51,1.09,1.52,1.36l-2.01,1.08c-.48.44-.65,1.18-.65,1.85,0,2.05,2.17,3.46,4.96,3.46,3.9,0,6.26-2.52,6.26-4.97,0-1.15-.65-2.86-2.72-2.86h-3.69c-.69,0-1.75-.05-1.75-.92,0-.51.74-.97,1.06-1.29.16.02.33.04.49.04,1.06,0,2.22-.39,3.23-1.11.93-.62,1.55-1.62,1.55-2.86,0-.44-.07-.88-.25-1.29h2.12ZM418.59,58.47c0,1.41-.99,2.45-2.35,2.45-1.48,0-2.61-1.04-2.61-3.07,0-1.52.76-2.72,2.31-2.72,1.92,0,2.66,1.66,2.66,3.35M416.28,70.99c-1.85,0-3.37-.99-3.37-2.98,0-1.46,1.29-2.35,1.94-2.42,1.04-.09,1.85-.09,2.45-.09,2.61,0,3.25.72,3.25,2.08,0,1.85-1.73,3.42-4.27,3.42"/>
  <path class="st1" d="M431.94,57.66l.23-.16,8.03,7.73c.72-.02,1.27-.06,1.83-.06s1.08.04,1.52.06v-.7l-.49-.05c-.41-.05-.85-.42-1.43-.95l-7.62-7.19,6.14-5.53c.58-.53,1.2-.85,1.8-.88l.97-.05v-.7c-.55.02-1.2.07-1.85.07s-1.32-.04-2.06-.07v.63c0,.16-.32.55-.67.9l-6.42,6.25v-4.93c0-.87.04-1.48.21-1.73.14-.23.42-.32.97-.34l1.11-.07v-.7c-1.2.05-2.28.07-3.35.07-1.13,0-2.21-.02-3.42-.07v.7l1.11.07c.55.02.83.12.97.34.16.25.21.85.21,1.73v10.35c0,.88-.04,1.48-.21,1.73-.14.23-.41.32-.97.35l-1.11.07v.7c1.2-.05,2.28-.06,3.42-.06,1.06,0,2.15.02,3.35.06v-.7l-1.11-.07c-.55-.02-.83-.12-.97-.35-.16-.25-.21-.85-.21-1.73v-4.73Z"/>
  <path class="st1" d="M448.28,65.63c3.53,0,6.05-2.49,6.05-6.03,0-2.95-2.29-5.26-5.24-5.26-3.72,0-5.88,2.42-5.88,5.89,0,3.19,2.17,5.5,5.08,5.4M448.56,55.1c2.22,0,3.63,2.54,3.63,5.52,0,2.15-.9,4.25-3,4.25-2.96,0-3.84-3.21-3.84-5.64,0-2.15.76-4.13,3.21-4.13"/>
  <path class="st1" d="M458.35,57.91c0-.94,1.43-2.17,2.84-2.17,1.57,0,2.66,1.01,2.66,2.93v6.56c.53-.02,1.2-.06,1.85-.06s1.32.04,1.9.06v-.7l-.95-.07c-.39-.02-.65-.12-.74-.32-.09-.25-.11-.72-.11-1.34v-4.45c0-2.51-1.11-4.01-3.81-4.01-.92,0-1.36.14-1.87.58l-1.71,1.48h-.04v-1.96l-.21-.09c-.85.37-2.24.81-3.6.95v.65h.85c.48,0,.72.07.86.25.12.18.16.69.16,1.43v5.19c0,.62-.02,1.08-.11,1.34-.09.21-.35.3-.74.32l-1.04.07v.7c.81-.02,1.73-.06,2.86-.06s2.05.04,2.86.06v-.7l-1.04-.07c-.39-.02-.65-.12-.74-.32-.1-.25-.12-.72-.12-1.34v-4.89Z"/>
  <path class="st1" d="M479.1,56.44l.58-.94-.09-.28-3.28.09c-.74-.67-1.8-.97-2.81-.97-.88,0-2.29.3-3.35.99-1.04.67-1.75,1.66-1.75,3.14,0,2.4,1.99,3.07,2.72,3.09v.05l-1.78,1.36c-.21.28-.35.62-.35.97,0,.67.51,1.09,1.52,1.36l-2.01,1.08c-.48.44-.65,1.18-.65,1.85,0,2.05,2.17,3.46,4.97,3.46,3.9,0,6.26-2.52,6.26-4.97,0-1.15-.65-2.86-2.72-2.86h-3.69c-.69,0-1.75-.05-1.75-.92,0-.51.74-.97,1.06-1.29.16.02.32.04.49.04,1.06,0,2.22-.39,3.23-1.11.93-.62,1.55-1.62,1.55-2.86,0-.44-.07-.88-.25-1.29h2.12ZM475.29,58.47c0,1.41-.99,2.45-2.36,2.45-1.48,0-2.61-1.04-2.61-3.07,0-1.52.76-2.72,2.31-2.72,1.92,0,2.66,1.66,2.66,3.35M472.98,70.99c-1.85,0-3.37-.99-3.37-2.98,0-1.46,1.29-2.35,1.94-2.42,1.04-.09,1.85-.09,2.45-.09,2.61,0,3.26.72,3.26,2.08,0,1.85-1.73,3.42-4.27,3.42"/>
  <path class="st3" d="M53.36,67.07c.77,0,4.32-1.27,5.71-2,7.44-3.93,13.94-9.25,18.18-16.61,3.4-5.92,3.61-13.21,4.17-19.84.72-8.57.65-17.15.52-25.75,0-.62-12.31-1.97-13.57-2.09-4.99-.46-11.67-.78-15-.78s-10.02.31-15.01.78c-1.26.12-13.56,1.47-13.57,2.09-.14,8.6-.2,17.18.52,25.75.56,6.63.77,13.92,4.17,19.84,4.24,7.36,10.74,12.68,18.18,16.61,1.39.73,4.94,2,5.71,2"/>
  <path class="st2" d="M70.16,35.51s.06,0,.08.01c-.03,0-.05-.01-.08-.01h0ZM68.54,36.54c.05.02.1.04.15.06-.04-.02-.09-.05-.14-.07h0ZM78.15,20.86s.03-.43.05-.45c.32-.1,1.71-.66,1.97-2.42.04-.27.05-.57.02-.91l-.08.07c-.28.26-1.12,1.05-1.58.95-.12-.03-.2-.11-.26-.25,0-1.76-.14-3.16-.32-4.96.5-.27,1.55-1.05,1.55-2.72,0-.22-.02-.46-.07-.71l-.09.1c-.27.32-1,1.15-1.43,1.1-.1-.01-.18-.07-.24-.19l-.02-.24c-.35-3.73-1.11-5.57-2.64-6.36,0,0-.1-.04-.1-.05,0,.03.08.14.15.26.22.33.59.88.74,1.53.25,1.11.33,2.01.33,2.74,0,.85-.12,1.48-.25,1.98-.2.37-.49.6-.85.68-.84.2-1.8-.73-2.12-1.49,0-.02-.02-.05-.05-.05-.07,0-.18.2-.25.34-.27,1,.06,2.25.74,2.73.25.18.65.32,1.12,0,.25-.17.43-.23.56-.19.07.02.12.07.15.16-.32.89-.68,1.79-1.08,2.67-.23.21-.49.32-.77.33-.95.06-1.74-1.11-1.93-1.94,0-.04-.02-.06-.04-.06-.07-.01-.23.18-.33.32-.48.98-.37,2.35.23,2.97.23.23.61.46,1.18.21.29-.13.49-.16.61-.1.05.03.09.08.1.17-.46.87-.97,1.74-1.53,2.59-.21.13-.43.2-.69.2-1.01,0-1.67-1.16-1.75-1.96,0-.03-.01-.05-.03-.05-.07-.02-.27.16-.39.3-.63.94-.72,2.23-.2,2.88.29.37.73.46,1.24.28.31-.11.51-.14.6-.08.03.02.05.06.05.12-.54.73-1.11,1.45-1.72,2.15-.4.26-.8.36-1.22.3-1.07-.16-1.72-1.69-1.72-2.71,0-.05-.01-.08-.03-.09-.08-.03-.32.15-.46.28-.8,1.02-1.02,2.61-.48,3.49.2.33.59.68,1.31.54.38-.08.6-.07.67.03.04.06.03.15-.04.26,0,0-1.74,1.61-1.74,1.61-.43.28-1.1.55-1.8.3-1.17-.42-1.59-2.29-1.37-3.45,0-.06,0-.09-.02-.11-.09-.06-.41.1-.59.22-1.13.98-1.72,2.76-1.3,3.87.16.42.53.91,1.38.9.47,0,.73.06.78.2.04.12-.06.28-.32.49-.24.13-.51.31-.73.58-.51.63-.75,1.14-.81,1.77l-.05.64c-.03.5-.07,1.01-.18,1.51-.09.47-.24.89-.43,1.24-1.09,1.98-3.63,3.01-6.3,3.4v-3.72c3.25-.1,4.65-1.51,4.65-4.69,0-2.7-.98-3.87-3.26-3.92-.46,0-.93.07-1.39.22v-2.07c1.63-.74,3.47-1.57,5.39-2.06,4.42-1.12,7.97-3.56,9.2-6.17.17-.38.3-.76.37-1.15-.24.15-3.19,2.02-5.39,2.5l-.3.05c-.3.06-.61.12-.76-.02-.08-.06-.11-.16-.11-.29,0-1.19.66-2.12,1.85-2.63l.12-.05c2.67-1.13,4.75-2.02,5.76-3.41.26-.37.45-.77.55-1.22-.22.12-3.32,1.75-5.32,2.04l-.11.02c-.24.04-.64.11-.83-.09-.11-.12-.13-.31-.07-.58.23-.91.61-1.44,1.33-1.85.78-.45,1.63-.83,2.44-1.19,1.38-.62,2.61-1.17,3.23-1.9.03-.04.07-.08.1-.12,0,0,.01-.02.02-.03.11-.17.19-.35.24-.54l-2.9.91-.57.18c-.83.26-1.69.53-1.97.26-.1-.1-.12-.26-.05-.5.15-.5.28-.78.51-1.12,1.09-1.55,3.29-3.18,5.93-2.72.44.08.66.05.68,0,0-.03-.07-.11-.41-.24-2-.73-3.85-.66-5.53.2-3.06,1.56-5.58,5.78-7.49,12.54-1.09,3.86-3.47,5.25-5.92,6.35v-8.62c.89-.36,1.66-.85,2.32-1.52,1.86-1.86,2.52-4.18,1.77-6.21-.61-1.64-2.06-2.78-3.7-2.9-.14,0-.27-.01-.39-.02v-1.24c-3.06,0-9.4.28-14.34.75-1.78.17-12.97,1.45-12.98,1.99-.05,2.92-.08,5.82-.08,8.7,0,5.38.13,10.71.58,16.06l.17,2.09c.45,5.86.92,11.91,3.83,16.98,3.68,6.43,9.53,11.8,17.4,15.97.49.26,2.75,1.42,4.63,1.82,0,0,.02,0,.03,0,.08.02.17.03.25.05.18.03.36.06.53.07v-9.23c2.62.04,6.69.07,7.78-.31,1.04-.36,1.71-1.16,1.89-2.25.2-1.26-.31-2.67-1.21-3.36-.12-.1-.3-.11-.35-.05-.04.04-.01.09.05.2.1.18.26.47.26,1.06,0,.55-.19,1-.56,1.35-1.02.95-3.09.82-3.11.82l-2.39-.03h-2.32s.05-.02.08-.02h-.09c1.35-.31,2.3-1.29,2.7-2.03,1.03-1.88.17-3.12-.11-3.47-.05-.05-.08-.08-.08-.08h.01s-.01-.02-.01-.02c.16,0,.32,0,.47-.02-.15,0-.29.02-.45.02l.02.02c.61,0,1.16-.07,1.67-.18-.37.08-.78.12-1.2.14,4.97-.28,6.02-4.77,6.59-7.21l.1-.4c.18-.73.64-2,1.73-2.34.7-.22,1.16-.48,1.49-.68l.4-.21s.14-.06.15-.06c.63.02.61.55.6.9,0,.14,0,.28.04.31.03.01.07,0,.15-.04.54-.33.8-1.33.88-1.91,0-.04,0-.09,0-.12h0s0-.02,0-.02c.68.24.74.64.78.86,0,.06.02.11.04.12.02,0,.08-.02.17-.1.5-.4.61-1.32.62-1.86v-.02s0-.02,0-.02c.84.05.92.53.96.75,0,.05.02.11.03.12,0,0,.03,0,.14-.11.43-.46.43-1.44.42-1.86,0-.02,0-.04,0-.06h0s0-.02,0-.02c.54.04.66.45.74.69.02.09.05.17.08.17.01,0,.05,0,.13-.11.5-.64.47-1.59.39-1.95,0-.03-.02-.06-.03-.08h0s0-.02,0-.02c.55.03.68.39.75.6.02.07.05.14.07.14.02,0,.06-.02.14-.13.39-.5.36-1.48.26-1.99.73-.86,1.19-1.6,1.32-2.13.1-.4.16-.46.21-.45.08,0,.11.23.12.37-.12,1.31-.39,2.99-.78,4.71,0,.01,0,.02,0,.03,0,.01,0,.03,0,.04-.05.24-.11.48-.16.73,0,0,0,0,0,0,0,.01,0,.02,0,.03-.24-.23-.87-.31-1.01-.16-.07.07,0,.17.08.25.27.28.41.8.43,1.28,0,.07.01.14.01.2h-.01s0,.01,0,.01c-.3-.15-.79-.18-.89-.05-.05.07.02.17.09.24.32.33.42,1.01.37,1.52,0,.09-.01.17-.03.24,0,0,0,0-.01,0,0,0,0,.02,0,.03-.24-.23-.87-.31-1.01-.17-.07.07,0,.17.08.25.28.29.34,1.06.29,1.57,0,.09-.01.17-.02.24,0,0,0,0-.01-.01,0,.01,0,.02,0,.03-.28-.25-.76-.39-.87-.3-.05.04-.02.14.07.27.35.52.24,1.48.13,1.85-1.6,3.54-3.37,5.36-5.28,5.4-1.55.03-2.39-1.36-2.48-2.35-.14-1.44,1.23-2.4,2.07-2.74.6-.25.98.09,1.11.25.49.59.43.99.29,1.23-.18.31-.6.47-.87.42-.46-.08-.83.09-.98.47-.15.36-.05.76.23.96.46.32,1.05.34,1.68.06.79-.35,1.46-1.12,1.53-1.75.13-.55-.08-1.66-.51-2.11-.97-1.33-2.2-1.72-3.28-1.05-1.92,1.19-3,2.55-3.12,3.93-.1,1.26.58,2.54,2.03,3.82,1.72,1.51,4.51.58,5.76-.75,0,0,.15-.11.17-.11.32.12,1.85.58,3.22-.75.17-.17.33-.36.5-.59h-.13c-.41.05-1.49.17-1.75-.19-.07-.1-.08-.22-.01-.37.79-1.08,1.51-2.45,2.16-4.1.33-.02,1.82-.21,2.52-1.86.11-.25.19-.54.25-.87l-.12.06c-.38.22-1.4.79-1.73.54-.11-.08-.13-.25-.07-.49.38-1.32.73-2.79,1.05-4.39.47-.07,1.88-.45,2.31-2.28.05-.22.09-.46.11-.73l-.11.07c-.35.24-1.29.87-1.71.7-.11-.04-.17-.14-.2-.28.21-1.42.4-2.95.57-4.58.22-.06,2.06-.67,2.06-3.03,0-.08,0-.16,0-.25-.03.03-.06.06-.06.06-.31.29-1.14,1.05-1.58.94-.11-.03-.18-.1-.23-.24l.19-3.79.02-.59ZM53.33,3.81c1.46.52,2.26,1.71,2.13,3.24-.12,1.47-1.08,2.79-2.13,2.95V3.81ZM53.33,27.93c.17-.02.36-.03.57-.03,1.44,0,2.08.68,2.08,2.19,0,1.09-.33,2.2-2.65,2.31v-4.47ZM60.18,39.71h0c-.93,1.56-2.11,2.52-5.08,2.52,0,0-.76,0-1.77,0v-1.63h1.59c2.43,0,4.09-.33,4.8-.94.33-.29.42-.27.47-.24.09.06,0,.26,0,.3M76.42,16.04l-.05.71c-.66,10.21-3.83,13.89-6.84,16.15l-.11.08c-.95.71-2.03,1.52-4,2.17l-.06.02c-.37.12-1.5.48-1.81,1-.29.5-.38.54-.43.51-.12-.07.11-.75.2-.91.22-.42.59-.65,1.3-.98,1.35-.63,1.53-1.44,1.51-1.86-.02-.6-.44-1.18-1.01-1.39-.44-.17-.86-.08-1.13.23.12.05.43.19.48.69.07.76-.33,1.08-.7,1.13-.43.05-.93-.24-1.01-.83-.16-1.08.41-1.78.78-2.02.44-.29.72-.39,1.05-.5,0,0,.56-.21.57-.21.9-.16,1.52.33,1.86.6.12.1.23.18.27.17l.05-.05c.13-.27-.05-1.32-.28-1.88l.02-.05h.03c.83-.12,1.25.44,1.5.77.09.11.17.22.21.21.02,0,.03-.03.05-.07.11-.32-.18-1.47-.44-2.01,0-.01-.02-.03-.03-.05h0s0-.02,0-.02c.84-.25,1.36.22,1.63.47.1.09.19.17.23.15l.04-.06c.08-.3-.3-1.38-.61-1.91,0,0,.16-.17.17-.18.81-.32,1.33,0,1.63.2.12.07.21.13.26.11l.04-.07c.07-.3-.32-1.28-.64-1.75,0,0,.15-.2.17-.2.65-.22,1.15-.05,1.45.04.13.04.22.07.26.05.02-.01.03-.03.04-.08.04-.29-.34-1.17-.63-1.49,0,0,.13-.19.15-.2.6-.21,1.06-.06,1.34.04l.24.05s.04-.05.04-.12c0-.35-.37-1.21-.59-1.43,0,0,0,0,0,0h0l-.02-.02c.58-.49,1.13-.45,1.42-.44h.22s.02-.05.02-.08c-.01-.23-.43-.85-.73-1.08.7-1.3,1.19-2.51,1.47-3.61.35-1.38.41-1.37.46-1.37.08.01.07.29,0,1.37M68.43,27.66s.08-.02.12-.03c-.04,0-.08,0-.12.02h0ZM73.61,21.25c.08-.07.16-.12.24-.16-.08.04-.16.09-.24.16,0,0,0,0,0,0M73.82,38.4s.06.05.08.07h0s-.05-.05-.08-.07M70.02,10.13s-.08.04-.21.11c.1-.05.17-.08.2-.09,0,0,0,0,0-.02M71.05,5.89h0s-.03,0-.08.02c.03,0,.06-.01.08-.02M68.31,15.2s-.08.05-.22.14c.11-.06.18-.1.21-.12,0,0,0-.01,0-.02M54.1,53.7c-.23.1-.48.18-.75.23h.09c.23-.06.45-.14.66-.23M73.22,33.09c-.06-.02-.13-.04-.21-.06,0,0,0,.01,0,.02.08,0,.14.02.21.04M73.13,40.31s.06.05.09.08v-.02s-.06-.05-.09-.07M74.27,36.47s.07.03.09.05h0s-.06-.04-.09-.05M74.78,34.86s.06.04.08.07c0,0,0,0,0-.01-.03-.02-.05-.04-.08-.06M71.7,34.33h0s.07.02.1.02c-.03,0-.06-.02-.1-.02"/>
  <path class="st3" d="M52.44,9.76c-.27-.27-.25-1.5-.24-1.52,0-1.58-1.33-2.15-2.46-2.15-1.21,0-2.46.64-2.46,1.71v4.03c0,.21-.06.39-.2.5-.12.1-.28.16-.47.16-.37,0-.76-.23-.76-.62v-2.17c0-2.47-2.76-2.84-4.41-2.84-2.36,0-4.86,1.05-4.86,3.01v1.08s0,8.89,0,8.89c.02.53-.33.92-.63,1.09-.26.15-.53.16-.71.04-.16-.11-.35-.36-.3-.97,0-.08-.03-.14-.09-.16-.08-.02-.21.04-.31.29-.28.74-.27,1.42.05,2.02.41.78,1.22,1.22,1.66,1.33l-.02,1.38h-.01c-1.57-.03-3.46-.63-3.46-3.49V7.64c0-2.1-.87-2.81-1.6-3.03-1.35-.42-3.1.49-3.84,1.57-.78,1.13-.55,2.15-.08,2.73.53.66,1.43.87,2.22.54.02,0,.16-.1.15-.2,0-.06-.07-.1-.18-.12-.54-.08-.86-.45-.86-.97,0-.57.5-1.06,1.1-1.06s1.07.48,1.07,1.06v13.83c-1.59-.03-2.02,1.28-2.02,2.05,0,1.21.85,1.67.88,1.68.04.02.12.02.17-.03.04-.04.07-.12,0-.26-.2-.4-.21-.75-.02-1.01.24-.34.76-.46,1.15-.41.24.04.41.13.46.27.59,1.66,2.12,2.51,4.67,2.58.06,0,.15.06.24.15v.76c-.79.33-2.53,1.48-2.46,4.76.06,2.51.55,6,1.03,6.35.04.03.08.04.12.03,2.12-.59,5.28-.63,6.87.32.22.13.34.29.33.43,0,.08-.06.15-.14.18-.08.03-.16,0-.23-.06-.7-.7-2.67-.78-3.25-.79-2.21-.04-6.73.64-8.07,3.47-.76,1.62.78,4.89,1.61,5.93.05.07.16.07.24.03.07-.03.1-.08.09-.13-.32-1.62.32-3.22,1.81-4.5,1.81-1.56,4.45-2.27,6.15-1.65.23.08.37.22.4.38.01.07,0,.14-.05.18-.04.03-.1.03-.16,0-2.21-.95-4.46.5-4.48.51.96,5.73,7.93,5.59,13.02,5.48l1.74-.02s1.95,1.93,1.68,3.55c-.11.65-.55,1.17-1.33,1.54-.78.38-3.89.18-4.21-.08-.17-.14-.24-.55-.18-1.04.1-.77.56-1.81,1.53-2.23.1-.03.15-.07.14-.13-.02-.12-.35-.21-.57-.18-1.77.22-3.05,1.12-3.5,2.46-.1.3-.14.44-.15.75-.05.56-.18.58-.92.66l-.4.05c-1.4.17-2.2.84-2.37,1.99-.13.91.15,1.82.77,2.51.52.57,1.18.89,1.83.86.04,0,.1-.04.11-.1.02-.05,0-.14-.17-.23-.79-.45-.99-1.19-.85-1.72.16-.58.72-.94,1.46-.93.01,0,.32,0,.33.22v.22s.05.64.05.64c.3,1.73,1.62,3.24,3.21,3.68.06.02.18-.03.21-.11.03-.07,0-.17-.27-.29-.84-.62-1.15-1.86-1.15-2.81,0-.63.13-1.16.32-1.3.35-.27,1.66-.45,2.3.2.64.64.93,1.22.81,1.65-.08.28-.33.48-.74.59-.05,0-.08.1-.07.17,0,.03.04.14.2.11,1.71-.25,2.3-1.59,2.29-2.66,0,0-.02-.06.02-.11.03-.04.11-.07.21-.07l1.25.02c.21,0,.44,0,.68,0v-14.39h-4.79c-1.11,0-1.53.48-1.56.93-.04.6.59,1.31,1.83,1.47.08,0,.27.13.27.2,0,.02-.02.08-.29.08-.82.01-2.53.04-3.15-.97-.38-.61-.4-1.41-.06-2.02.44-.79,1.43-1.22,2.79-1.22h4.96v-1.92c-2.48.37-5.09.16-6.73-.37-3.09-1.01-5.66-3.82-4.61-7.27.15-.48.48-.97,1.02-1.51.67-.67,1.35-.69,1.57-.7.09.01.15,0,.18-.05.06-.11-.14-.32-.14-.32-1.07-1.27-5.53-1.65-6.42-1.28-.02.01-.05-.03-.07-.06-.36-.65-.49-4.87,1.1-5.98.67-.46,1.36-.63,1.87-.45.41.14.7.5.86,1.07.2.66,0,1.43-.44,1.71-.32.21-.73.14-1.16-.21-.12-.1-.17-.24-.21-.36l-.06-.14c-.04-.09-.12-.2-.2-.19-.03,0-.06.01-.08.07-.06,1.34.47,2.32,1.46,2.68,1.71.63,3.58-.03,4.75-1.67,1.09-1.53,1.55-4.1.48-5.01-.08-.06-.13-.08-.17-.05-.09.05-.05.29-.04.34,0,1.43-.92,2.46-1.82,2.63-.78.14-1.43-.33-1.79-1.31,0,0,.03-.21.27-.19.79.07,1.35-.22,1.64-.83.36-.77.06-1.83-.69-2.48-.03-.01-.18-.05-.25,0-.02.01-.03.04-.03.08.11.94-.14,1.53-.68,1.64-.5.1-1.09-.26-1.23-.74-.14-.51.28-.99,1.14-1.3.05-.02.06-.05.07-.07.02-.07-.06-.16-.07-.17-1.14-.38-2.35.03-2.77.93-.28.6-.02,1.65.63,1.96,0,0,.02.04-.02.1-.13.18-.73.41-1.28.24-.4-.13-.89-.51-.89-1.6v-6.59c0-.67.74-1.04,1.48-1.1.73-.06,1.56.17,1.67.82.14.83.03,1.04-.23,1.17-.51.24-.95-.15-.95-.15,0,0-.01.01-.01.02h0s0,.02,0,.03c-.08.16-.07.32.02.48.18.35.67.63,1.23.73.56.1.98.03,1.25-.2.21-.18.32-.45.32-.8v-1.07c0-.5.27-.74.53-.75.23-.01.47.16.51.55v1.42s0,2.34,0,2.34c0,1.69,1.31,2.45,2.54,2.45s2.47-.79,2.47-2.29v-3.47c0-.64.26-1.05.7-1.09.44-.04.99.33,1.12,1,.15.76.09.88-.12,1.28l-.12.23-.09.17c-.2.4-.29.58-.22.68.05.07.18.07.44.04.84-.1,1.59-.29,2.27-.57v-3.26s-.03,0-.04,0c-.3.04-.62.06-.87-.2M39.52,31.07c0,1.01-.87,1.84-1.93,1.84s-1.93-.83-1.93-1.84.87-1.83,1.93-1.83,1.93.82,1.93,1.83M40.54,12.06h0s0,0,0,0c0,0,0,0,0,0M36.21,31.07c0,.72.62,1.31,1.37,1.31s1.38-.59,1.38-1.31-.62-1.3-1.38-1.3-1.37.58-1.37,1.3M49.42,4.02c-.19.25-.35.54-.27.61.04.04.12,0,.25-.1,1.08-.93,2.35-1.17,3.78-.72.06.02.12.05.18.07v-1.41c-2.5-.06-3.64,1.15-3.94,1.55M47.26,25.59c-.53.71-.8,2.36-.8,4.92,0,4.06,3.13,4.62,6.51,4.62.14,0,.26,0,.39-.01v-2.77c-.13,0-.25,0-.39,0-2.86,0-3.95-.22-3.95-2.52,0-2.72,1.24-3.82,3.11-4.64l1.2-.54s.02,0,.03-.01v-2.95c-.31.14-.62.27-.93.41-1.87.81-3.8,1.65-5.18,3.47M33.77,37.65h.03s.05-.03.05-.03l-.46-3.07c0-.16,0-.28-.08-.34-.08-.06-.24-.05-.55.05-4.34,1.42-4.36,3.06-4,6.08.02.2.3.56.4.56h.02s.02-.04.02-.04c.05-.27.22-.63.29-.76,1.27-2.24,3.42-2.45,4.28-2.44M33.79,37.63h0s-.1,0-.16,0c.07,0,.13,0,.16,0M50.96,29.57c-.04.18.03.38.17.43.05.02.19.04.33-.21l.13-.3c.29-.73.55-1.38,1.78-1.51v-1.37c-1.18.39-2.22,1.34-2.4,2.95"/>
  <path class="st0" d="M106.01,72.76c-.21-2.57-2.39-4.37-12.7-1.98-.04-1.18-.09-2.22-.11-2.73-.09-1.98-2.2-3.07-6.47-2.93-2.11.07-3.23.15-4.02.26-2.87-2.22-3.73-5.75-3.56-8.91l4.15-4.79c1.1-.86-2.6-4.63-6.2-3.57l-7.05,9.29c.11-.09.22-.17.33-.25-1.71,2.17-1.58,6.3.87,10.4-5.81.96-12.41,1.89-17.11,1.89-.27,0-.55,0-.83-.01-.28,0-.56.01-.83.01-4.7,0-11.3-.93-17.11-1.89,2.46-4.1,2.58-8.23.87-10.4.11.08.22.16.33.25l-7.05-9.29c-3.6-1.06-7.3,2.71-6.2,3.57l4.15,4.79c.16,3.17-.7,6.69-3.57,8.91-.79-.11-1.91-.2-4.02-.26-4.27-.14-6.38.95-6.47,2.93-.02.51-.07,1.55-.11,2.73-10.31-2.39-12.49-.59-12.7,1.98-.17,2.11-.24,6.22,0,7.74.24,1.52,2.51,2.64,4.95,3.06,5.64.97,16.36-.28,24.6-7.57,5.19,1.21,11.52,2.73,22.32,2.73.28,0,.55,0,.83,0,.28,0,.55,0,.83,0,10.8,0,17.13-1.52,22.32-2.73,8.24,7.29,18.96,8.54,24.6,7.57,2.44-.42,4.71-1.54,4.95-3.06.24-1.52.16-5.64,0-7.74"/>
  <path class="st3" d="M23.81,69.06c-.21.49-.77,3.62-.83,4.29.17,0,.43.04.45-.01.61-1.43.92-2.95,1.05-4.5-.25,0-.54-.07-.67.23M26.73,69.07c.17.7-.03,4.24.51,5.26.13.22.43-.05.46-.24.24-1.71.03-3.31-.3-5.01,0-.05-.42-.02-.67-.02M27.71,68.01s.07-.34-.02-.41c-1.19-1.02-2.63-.49-3.97-.49-.35,0-.23.43-.25.7.17,0,.33.02.5,0,1.29-.17,2.46.48,3.73.2M106.47,72.72c-.09-1.12-.52-1.95-1.31-2.53-1.79-1.3-5.43-1.28-11.42.07-.02-.61-.05-1.28-.08-2.01v-.22c-.08-1.62-1.34-3.5-6.91-3.32-1.95.06-3.08.14-3.87.24-1.48-1.19-2.31-2.68-2.75-4.04-.45-1.38-.6-2.86-.55-4.28l4.05-4.67c.21-.18.54-.64.1-1.49-.74-1.44-3.69-3.65-6.71-2.76-.08.03-.16.08-.21.15l-7.05,9.29c-.08.1-.1.23-.06.35-.23.39-.42.83-.56,1.31-.2.7-.29,1.44-.29,2.21,0,1.97.64,4.13,1.8,6.22-5.67.93-11.95,1.79-16.47,1.79-.27,0-.55,0-.83-.01-.28,0-.56.01-.83.01-4.53,0-10.81-.86-16.48-1.79,1.16-2.09,1.8-4.25,1.8-6.22,0-.77-.1-1.51-.3-2.21-.14-.48-.33-.91-.55-1.31.03-.12.01-.25-.06-.35l-7.06-9.29c-.05-.07-.13-.12-.21-.15-3.02-.89-5.98,1.32-6.72,2.76-.44.86-.11,1.31.1,1.49l4.05,4.67c.05,1.41-.1,2.89-.55,4.28-.44,1.36-1.27,2.85-2.75,4.04-.79-.1-1.92-.18-3.87-.24-5.57-.18-6.83,1.71-6.9,3.32v.22c-.04.74-.07,1.4-.1,2.01-5.98-1.35-9.63-1.37-11.42-.07-.79.58-1.22,1.41-1.31,2.53-.16,2.07-.25,6.26,0,7.84.3,1.9,3.04,3.02,5.29,3.41,4.82.82,15.93.22,24.8-7.53l.09.02c5.12,1.19,11.48,2.67,22.14,2.67.28,0,.55,0,.83,0,.28,0,.55,0,.83,0,10.65,0,17.02-1.48,22.14-2.67.03,0,.06-.01.09-.02,8.87,7.75,19.99,8.35,24.8,7.53,2.26-.39,4.99-1.51,5.29-3.41.25-1.58.17-5.77,0-7.84M86.77,65.53c2.7-.09,5.95.28,6.05,2.54v.22c.15,3.08.19,4.93.19,6.03,0,.43,0,.72-.02.95-.74-.54-1.68-.69-2.83-.85-3.58-.5-6.45-.28-9.39.24l-.05-.29c.1-.23-.58-3.71-.48-3.87.26-.38,1.45.02,1.43-.71-.01-.65-1.04-.35-1.53-.4-.18-.02-.18-.05-.21-.21-.06-.28-.33-1.61-.56-1.82-.2-.2-.52-.02-.58.24-.12.42.55,2.04.29,2.05-.67.03-1.35.61-1.39.45-.12-.32-.13-.83-.37-1.16-.32-.45-1.43-.14-1.44-.34-.02-.49.32-.45.52-.56.13-.07.28-.17.3-.33.04-.2.05-.49-.07-.65.37-.07.74-.13,1.09-.19l.72-.13c1.45-.25,2.23-.45,2.85-.62,1.15-.3,1.78-.46,5.48-.58M92.68,77.07c-.45.5-1.81.4-3,.32-1.19-.09-2.31-.17-2.99.25,0-.19-.01-.38,0-.59.03-1.1.28-1.86.52-2.09.9.03,1.85.12,2.84.26,1.45.2,2.25.35,2.79,1.01.05.38,0,.66-.16.84M76.58,70.18c.18.02.32.06.32.25,0,.23-.33.26-.39.29-.08.03-.29.02-.32-.06-.11-.3.08-.52.4-.47M75.94,69.54c-.09-.11-.05-.34,0-.36.05-.02.32-.17.45-.09.08.06.16.19.12.29-.08.18-.42.32-.56.15M76.52,71.19c.06-.2.93.08,1-.53.02-.13.17.11.45.22.26.11,1.02-.28,1.49-.21.03.01.69,3.55.55,4.07l-1.48.25c-.05-1.78-.86-3.58-1.28-3.59-.39,0-.82.17-.72-.22M75.45,67.41s-.02-.06-.03-.15c.19-.03.39-.07.58-.1-.01.08-.02.17-.1.22-.15.1-.37,0-.45.03M77.35,48.49c2.52-.67,5.03,1.18,5.63,2.35.08.16.12.3.12.4,0,.05-.01.09-.04.11-.02.02-.04.03-.06.05,0,0-5.77,6.66-6.37,7.35-1.13-1.55-2.4-2.49-3.71-2.68-.48-.07-.95-.03-1.41.09,1.56-2.05,5.67-7.47,5.83-7.68M69.66,60.94c0-.7.09-1.35.25-1.91.18-.62.45-1.16.79-1.6.69-.46,1.39-.64,2.1-.54,1.19.17,2.39,1.12,3.47,2.74.07.11.19.17.32.18.13,0,.25-.04.34-.14l1.81-2.1c.03,1.2.21,2.41.59,3.58.43,1.32,1.19,2.75,2.47,3.97-.24.05-.47.11-.73.18-.61.16-1.37.36-2.78.61l-.72.13c-.82.15-1.7.3-2.61.46-.14,0-.31.02-.55.09h0c-.94.16-1.91.33-2.91.5-1.27-2.21-1.83-4.37-1.83-6.15M74.64,69.5l.1-.06c.11-.03.26-.18.38-.06.13.13.12.37.02.49-.14.15-.47.07-.57-.08-.06-.1.05-.22.08-.29M74.24,67.88s-.03-.35-.14-.39c.2-.03.4-.07.6-.1.03.17.05.34-.03.45-.08.12-.29.12-.42.05M74.72,70.52c.14-.1.49-.12.56.05.04.08.1.2.04.28-.08.1-.35.18-.48.15-.03,0-.48-.23-.13-.48M59.84,71.72c.19.07.47.07.58-.07.19-.22-.1-.83.23-.85.99-.08,1.42.46,1.68.8.07.09-1.41,1.3-1.85,2.01-.5-.36-1.35-.51-1.99-.72,0,0-.1-.41.21-.76.39.39.85.87,1.52.87.7,0,1.6-1.33,1.28-1.55-.49-.35-.84,1.32-1.73.73-.32-.21-.83-.86-.24-.96.21-.04.1.42.31.5M43.91,69.22c.96.12,1.9.22,2.83.31-.64.66.2,2.14-.78,2.68-.16-.38-.48-.3-.75-.24-.38.09-.33.59-.21.72.37.38,1.47.25,1.17,1.11-.21.61-.62,1.17-1.17.74-1.11-.87-1.07-2.34-.68-3.72.04-.13,0-.73-.33-1.07-.12-.12-.15-.42-.07-.54M43.2,70.06c.16.18.37.33.48.55.26.53-.23.75-.48,1.06-.22-.32-.54-.65-.45-1.06.05-.21.28-.37.45-.55M23.62,51.41s-.04-.04-.06-.05c-.03-.02-.04-.06-.04-.11,0-.1.04-.24.12-.4.6-1.17,3.12-3.02,5.63-2.35.16.21,4.27,5.62,5.84,7.68-.46-.12-.94-.16-1.41-.09-1.31.19-2.58,1.13-3.71,2.68-.6-.69-6.37-7.35-6.37-7.35M27.29,61.16c.38-1.16.56-2.38.59-3.58l1.81,2.1c.09.1.21.15.34.14.13,0,.25-.08.32-.18,1.08-1.62,2.28-2.57,3.47-2.74.71-.11,1.42.08,2.1.54.35.44.62.98.8,1.6.16.56.25,1.21.25,1.91,0,1.78-.56,3.94-1.83,6.15-2.18-.36-4.26-.73-6.07-1.05l-.72-.13c-1.42-.25-2.17-.45-2.78-.61-.25-.07-.49-.13-.73-.18,1.29-1.22,2.04-2.65,2.47-3.97M.98,72.79c.07-.88.38-1.49.97-1.93,1.55-1.13,5.22-1.05,10.9.24-.09,2.39-.09,3.7-.03,4.42.05.85.17,1.76.5,2.11.75.78,2.23.69,3.67.59,1.04-.08,2.22-.16,2.58.19.06.06.13.16.11.43-.03.4-.17.67-.44.86-1.17.82-4.42-.06-7.03-.78-1.17-.32-2.28-.62-3.18-.78-2.96-.51-6.26-.95-7.89.34-.11.09-.2.19-.3.29-.06-1.87.01-4.47.13-5.98M13.78,76.23c.55-.66,1.35-.8,2.8-1.01.99-.14,1.94-.22,2.84-.26.24.23.49.99.52,2.09,0,.21,0,.4,0,.59-.67-.42-1.8-.34-2.99-.25-1.19.09-2.55.19-3-.32-.16-.18-.21-.46-.16-.84M5.59,83.16c-2.5-.43-4.38-1.52-4.61-2.67.05-.59.27-1.04.67-1.36,1.3-1.02,4.25-.69,7.24-.17.86.15,1.95.45,3.11.76,3.07.84,6.24,1.7,7.72.66.04-.03.07-.06.1-.09,0,0,.02,0,.03-.01.72-.51.94-2,.91-3.24-.01-.47-.09-1.39-.39-2.08,3.1,0,5.81.55,8.88,1.26-8.56,7.18-19.07,7.73-23.67,6.94M42.05,77.76c-4.78-.54-8.39-1.37-11.52-2.1-1.69-.39-3.25-.75-4.8-1.03-.02-1.88.46-3.91.16-5.79,0-.04-.42,0-.67,0,.1,1.82-.53,3.8-.41,5.65-2.58-.4-5.2-.52-8.36-.07-1.15.16-2.09.31-2.83.85,0-.23-.02-.52-.02-.95,0-1.1.04-2.95.18-6.03v-.22c.11-2.25,3.36-2.62,6.06-2.54,3.71.12,4.34.28,5.48.58.62.16,1.39.36,2.81.61.08.05.16.09.23.12.67.24,1.22,1.59,1.24,2.48.05,1.83-.89,3.71-.1,5.51.03.06.29.02.46.02-.4-2.33,1.32-4.85.04-7.07-.09-.16-.05-.6.13-.72,3.75.66,8.32,1.44,12.72,2.01-.25.27-.76.94-.87,1.26-.34,1,.52,1.97-.22,3-.32.45.36,1.15.27,1.5-.18.74-1.55,1.33-.97,2.06.47.58.73-.98,1.06-.82.53.26.15,1.39-.08,1.67M42.99,72.86c.29-.11.53.58.64.98.07.24-.21.75-.41.69-.76-.22-1.06-1.35-.23-1.67M59.37,78.14s.01.03.02.04c-1.63.08-3.37.13-5.25.13-.28,0-.55,0-.83,0-.28,0-.55,0-.83,0-3.57,0-6.64-.17-9.36-.44-.09-.24-.23-1.04.08-1.07.4-.03.94.5,1.16.16.51-.8-.52-1.38-1.17-1.81.16-.18.41-.5.47-.47,1.09.67,2.99.88,3.19-.62.18-1.41,1.06-2.98.29-4.41,0-.04-.01-.07-.02-.09,1.93.18,3.76.29,5.36.29.27,0,.55,0,.83-.01.28,0,.56.01.83.01,1.6,0,3.42-.11,5.34-.28v.12c.01.18.29.71-.44.79-1.61.15-2.13,4.06-1.26,4.09.59.03.3-.64.43-.93.06-.14,1.34.29,1.81.68-.43.78-.58,1.69-.65,2.6-.02.33.02,1.15,0,1.24M60.09,78.14v-.19c.11-.9.21-2.27.49-2.76.35-.6.87.49.92.63.18.52.61,1.83.63,2.18-.66.05-1.33.1-2.03.14M76.09,75.66c-3.5.82-7.6,1.77-13.27,2.28.06-.06.08-.14.05-.22,0,0-.29-2.46-1.7-3.68.44-.51,1.28-1.6,1.62-1.56.2.02.04.99.22,1.13.11.09.68.1.7-.06.1-1.04-.51-3.77-3.19-3.49l.06-.48v-.14c4.21-.44,8.84-1.17,12.9-1.86-.12.05-.21.13-.2.26.01.54.59.78,1.04.7.13-.02.11.29,0,.41-.17.18-.78.29-.73,1,.14,2.38,1.76,1.22,1.85,1.47.17.47-.99.21-.99.65,0,.61,1.39-.04,1.43.1.21.67-1.6.23-1.59.88.02.67,1.82-.03,1.84.1.16.66-1.03.21-1,.86.01.27.45.24.68.18.49-.14.98-.3,1.38-.64.18.18.25.41.33.63.11.3.05.63.11,1,0,.04,0,.08,0,.12-.52.12-1.04.24-1.57.36M101.03,83.16c-4.6.79-15.11.23-23.67-6.94,3.07-.71,5.79-1.26,8.89-1.26-.31.69-.38,1.61-.4,2.08-.03,1.23.19,2.73.91,3.24,0,0,.02,0,.03.01.03.03.06.06.1.09,1.48,1.05,4.66.18,7.73-.66,1.15-.31,2.24-.61,3.11-.76,2.99-.52,5.94-.86,7.24.17.41.32.63.77.67,1.36-.23,1.15-2.11,2.25-4.61,2.67M105.78,78.77c-.09-.1-.19-.2-.3-.29-1.63-1.29-4.93-.85-7.89-.34-.9.16-2.01.46-3.18.78-2.61.71-5.87,1.6-7.03.78-.27-.19-.41-.46-.44-.86-.02-.26.05-.37.11-.43.35-.36,1.53-.27,2.57-.19,1.45.11,2.93.2,3.67-.59.33-.35.45-1.26.5-2.11.06-.72.05-2.02-.03-4.42,5.68-1.29,9.35-1.37,10.9-.24.59.43.9,1.05.97,1.93.12,1.51.19,4.11.13,5.98"/>
</svg>