<?xml version="1.0" encoding="UTF-8"?>
<svg id="Layer_1" xmlns="http://www.w3.org/2000/svg" version="1.1" viewBox="0 0 622.31 71.13">
  <!-- Generator: Adobe Illustrator 29.4.0, SVG Export Plug-In . SVG Version: 2.1.0 Build 152)  -->
  <defs>
    <style>
      .st0 {
        fill: #6a6260;
      }
    </style>
  </defs>
  <g>
    <path class="st0" d="M9.41,56.64c-.15-.76-.27-1.13-.54-1.54-.3-.53-.73-.69-2.18-.69h-1.45c-.55,0-.62.04-.62.6v4.56h1.98c1.74,0,1.82-.17,2.07-1.4h.53v3.68h-.53c-.25-1.3-.33-1.53-2.07-1.53h-1.98v3.47c0,1.65.15,1.76,1.9,1.88v.54H1.31v-.54c1.53-.12,1.69-.23,1.69-1.88v-7.62c0-1.67-.16-1.77-1.63-1.88v-.54h8.43c0,.69.09,1.92.19,2.82l-.58.08h0Z"/>
    <path class="st0" d="M16.97,66.43c-.29,0-.68-.18-.9-.37-.25-.27-.36-.54-.46-.86-.77.52-1.68,1.23-2.26,1.23-1.36,0-2.3-1.13-2.3-2.34,0-.94.5-1.54,1.55-1.9,1.15-.38,2.55-.9,2.97-1.24v-.35c0-1.38-.65-2.17-1.61-2.17-.38,0-.67.15-.86.39-.25.25-.42.67-.58,1.26-.07.31-.28.44-.55.44-.35,0-.84-.38-.84-.82,0-.29.24-.5.61-.77.54-.38,1.78-1.13,2.87-1.34.58,0,1.15.17,1.57.52.67.56.86,1.34.86,2.34v3.56c0,.87.34,1.15.67,1.15.24,0,.5-.1.69-.21l.19.5-1.63.98h0ZM15.57,61.6c-.4.21-1.32.61-1.72.81-.75.35-1.17.7-1.17,1.4,0,.99.77,1.48,1.36,1.48.5-.02,1.17-.35,1.53-.69v-2.99h0Z"/>
    <path class="st0" d="M26.53,64.47c-.85,1.11-2.14,1.96-3.27,1.96-2.41,0-3.83-1.96-3.83-4.01,0-1.47.63-2.76,1.92-3.76,1-.76,2.15-1.07,2.89-1.07s1.4.25,1.71.5c.25.21.31.38.31.59,0,.4-.42.82-.63.82-.09,0-.19-.06-.36-.21-.58-.54-1.26-.78-1.92-.78-1.27,0-2.38,1.05-2.38,3.06,0,2.67,1.82,3.55,2.9,3.55.82,0,1.45-.23,2.34-1.05l.33.4h0Z"/>
    <path class="st0" d="M36.87,65.75c-.89.13-1.87.4-2.82.69l-.12-.12v-1.35c-.43.33-.89.67-1.42,1-.56.32-.96.48-1.47.48-1.29,0-2.37-.79-2.37-2.86v-3.75c0-1.06-.08-1.13-1.17-1.34v-.44c.91-.05,1.82-.18,2.75-.34-.06.6-.06,1.49-.06,2.8v2.57c0,1.71.82,2.17,1.69,2.17.69,0,1.42-.29,2.06-.93v-4.47c0-1.09-.11-1.17-1.48-1.36v-.44c1-.05,1.98-.13,3-.34v6.41c0,.96.15,1.09.89,1.13l.53.04v.48h0Z"/>
    <path class="st0" d="M37.49,66.2v-.5c1.21-.11,1.38-.23,1.38-1.49v-9.07c0-1.3-.11-1.36-1.31-1.45v-.46c.98-.12,2.17-.44,2.82-.67v11.65c0,1.26.16,1.38,1.38,1.49v.5h-4.27,0Z"/>
    <path class="st0" d="M46.25,66.18c-.34.18-.65.25-.81.25-1.22,0-1.89-.77-1.89-2.28v-5.58h-1.31l-.08-.2.51-.55h.89v-1.4l1.25-1.27.27.04v2.63h2.18c.15.19.11.61-.13.75h-2.05v4.92c0,1.56.64,1.84,1.12,1.84s.93-.19,1.2-.33l.15.5-1.29.67h0Z"/>
    <path class="st0" d="M56.9,58.3c-1.02.16-1.2.31-1.71,1.4-.46,1.01-1.07,2.61-2.4,5.77-1.27,3.06-1.69,4.15-1.96,5.19-.11.37-.36.46-.63.46-.54,0-1.08-.46-1.08-.92,0-.31.18-.47.48-.68.6-.39.98-.87,1.42-1.71.36-.67.51-1.07.61-1.33.08-.29.08-.54-.03-.86-.78-2.18-1.62-4.5-2.2-5.86-.4-1.05-.61-1.3-1.65-1.46v-.47h3.89v.47c-.89.16-.98.35-.73,1.05l1.72,4.81c.54-1.3,1.38-3.56,1.78-4.77.22-.73.09-.94-1-1.09v-.47h3.47v.47h0Z"/>
    <path class="st0" d="M69.95,61.87c0,3.09-2.27,4.56-4.18,4.56-2.63,0-4.18-2.11-4.18-4.24,0-3.16,2.44-4.6,4.18-4.6,2.38,0,4.18,1.9,4.18,4.28M63.37,61.58c0,2.42,1.04,4.22,2.63,4.22,1.17,0,2.15-.88,2.15-3.51,0-2.24-.88-4.06-2.55-4.06-1.2,0-2.22,1.18-2.22,3.35"/>
    <path class="st0" d="M72.37,57.83v-.42c0-.6.06-1.15.2-1.58.12-.42.44-1.36,1.46-2.24.69-.59,1.38-.94,2.11-1.03.66.02,1.22.29,1.51.65.18.21.2.46.11.67-.07.15-.18.31-.38.46-.15.13-.33.13-.51-.06-.37-.35-.91-.71-1.55-.71-.49,0-.8.23-1.03.58-.25.36-.44,1.29-.42,2.92v.77h2.24c.13.16.02.63-.18.75h-2.07v5.51c0,1.42.13,1.48,1.65,1.64v.48h-4.53v-.5c1.24-.11,1.38-.21,1.38-1.48v-5.64h-1.36l-.06-.2.51-.55h.92Z"/>
    <path class="st0" d="M90.4,66.38v-.57c1.21-.15,1.36-.33,1.12-1.11-.25-.74-.61-1.74-1.02-2.87h-4.11c-.29.84-.56,1.64-.81,2.44-.4,1.2-.26,1.39,1.21,1.55v.57h-4.28v-.57c1.27-.18,1.53-.31,2.2-2.03l4.03-10.19.69-.19c1.21,3.35,2.51,7.03,3.76,10.4.61,1.68.88,1.88,2.15,2.01v.57h-4.95,0ZM88.55,56.13h-.06c-.6,1.62-1.18,3.26-1.77,4.84h3.49l-1.66-4.84Z"/>
    <path class="st0" d="M99.33,59.66c.61-1.03,1.43-2.07,2.34-2.07.7,0,1.16.53,1.16,1.02,0,.45-.28.86-.68,1.05-.23.1-.41.06-.53-.06-.29-.27-.54-.39-.87-.39-.47,0-1.06.51-1.46,1.55v3.59c0,1.27.1,1.38,1.61,1.5v.53h-4.65v-.53c1.2-.12,1.32-.24,1.32-1.5v-4.08c0-1.25-.09-1.31-1.16-1.48v-.45c.99-.15,1.89-.39,2.88-.78v2.1h.04Z"/>
    <path class="st0" d="M107.7,66.36c-.33.18-.63.25-.79.25-1.3,0-2.01-.76-2.01-2.35v-5.64h-1.33l-.09-.21.53-.59h.89v-1.43l1.44-1.33.26.06v2.69h2.16c.19.2.14.64-.11.8h-2.05v4.98c0,1.56.66,1.83,1.14,1.83.46,0,.88-.16,1.15-.29l.18.53-1.38.68h0Z"/>
    <path class="st0" d="M114.99,60.18c-.38-1.15-1.05-1.94-2.01-1.94-.7,0-1.21.55-1.21,1.29,0,.82.71,1.27,1.61,1.66,1.5.63,2.5,1.31,2.5,2.69,0,1.81-1.68,2.73-3.26,2.73-1.01,0-1.93-.37-2.28-.66-.14-.27-.32-1.62-.33-2.36l.55-.08c.35,1.27,1.23,2.44,2.42,2.44.7,0,1.33-.53,1.33-1.31,0-.82-.5-1.27-1.53-1.76-1.12-.53-2.47-1.19-2.47-2.71,0-1.41,1.18-2.58,3.02-2.58.84,0,1.38.18,1.78.35.15.43.37,1.64.42,2.09l-.53.14h0Z"/>
    <path class="st0" d="M47.14,1.61c1.86-.75,1.49,1,1.51,1,.06,2.03-.92,2.34-.9,2.34-2.07.9-1.86,1.71-1.86,1.71,0,1.27,1.86,1.09,1.86,1.09,2.3.02,2.13.88,2.13.87-.02,1.15-2.28,1.09-2.27,1.11-1.61-.04-1.17,1.5-1.17,1.48,0,1.46,2.17,1.71,2.17,1.71,1.32.56-2.09,2.86-2.09,2.86-2.49,1.54-2.63-1.19-2.63-1.21-.62-6.49-.96-6.67-.96-6.68-1.62-3.96.96-5.03.96-5.03,0,0,3.27-1.25,3.25-1.25h0ZM54.76,2.03c-.61.75-1.17.06-1.15.08-.41-.87-.9-.69-.9-.69-1.06.1-.36,3.11-.39,3.05,0,.9-1.37,2.38-1.37,2.38-.78.96,0,1.77,0,1.77.75.44,2.4-1.65,2.4-1.65.96-1,1.58-.88,1.62-.88.48-.02,2.63,1.21,2.63,1.21.8.23,1-.58,1.05-.58.56-.56-2.34-2.34-2.33-2.34-.52-.33.69-1.27.75-1.29.82-.75-.54-1.96-.54-1.96-.79-.9-1.23,0-1.23,0,0,0-.54.9-.56.9h0ZM52.76,11.12s-2.43,2.09-1.94,2.67c0,.02.36.96,1.52-.15-.02-.02,1.78-2.21,2.67-1.58,0,0,1.69,1.62,2.67.59.02.03,1.02-.7-.29-1.53-.02.02-1.46-.81-.33-1.4-.02,0,1.13-.6.18-1.75-.04-.02-.91-1.21-1.25.27,0,0-.93,1.71-1.58,1.23.02,0-1.36-1.4-1.86-1.29,0,0-.85.42-.48,1.82,0,.02.23.75.69,1.11h0ZM64.64,1.94c-.5-.1-1.03-.16-1.51-.33-.41-.14-1.16-.86-1.58-.65-.28.14-.26.71-.27.96-.03,1.04.35,2.04,1.26,2.63,1.18.76.26,3-1.09,2.08-1.56-1.05-1.13,1.1-1.13,1.08.04,1.38.91,1.44.89,1.44,1.19.4.65,1.31.65,1.31-.19,1.11-1.02.96-1.02.96-.02,0-.04,0-.06,0-1.35-.14.14,1.3.14,1.26,1,1.06,1.98.92,1.98.92,1.61,0,2.21-3.53,2.21-3.53.54-2.27,1.54-4.99,1.56-5.01.77-1.4.04-2.35-1.1-2.83-.28-.12-.59-.21-.91-.27h0ZM40.51,29.57s-.6,8.98,1.89,10.22c.03,0,1.26.62.57-1.27,0,0-.35-2.84-.15-5.53,0,0-.27-10.91,3.57-12.56-.04,0,4.11-2.34,8.45-2.31.84.14,1.89-.1,2.75-.1,1.61,0,3.19.08,4.78.3.69.09,1.68.31,2.09.95.4.63.44,1.43.58,2.14.12.67.28,1.33.39,2.01.14.83.26,1.67.34,2.51.09.89.28,1.9.17,2.79,0,0-.71,5.83,1.05,6.49.66.25.57-1.89.58-2.14.05-4.03,0-8.06,0-12.09,0-.35,0-.7,0-1.05,0,0,.65-4.76-3.46-4.65,0-.08-5.07.31-9.1-.27-1.84-.26-3.72-.33-5.37.73-.44.29-.59.53-1.1.52-.96,0-1.91.3-2.62.96-.32.29-.34.43-.77.44-2.24.07-4.07,1.56-4.47,3.81-.47,2.62-.16,5.44-.15,8.09h0ZM56.18,32.11v3.5c-.2,4.66-5.23,8.61-5.23,8.64-4.55,3.63-9.25,4.07-9.25,4.07-1.84.04-1.76-.49-1.76-.49-.12-1.11,1.84-1.61,1.88-1.65,3.69-.58,5.53-2.15,5.53-2.19,6.42-4.53,5.42-9.76,5.42-9.76.04-1.19-4.03-1.5-3.99-1.5-2.27-.31-1.73-2.42-1.73-2.42.15-3.38,1.73-1.38,1.73-1.38,0,0,2.06,1.41,2.06,1.42,1.56,1,1.17-.77,1.17-.77,0-.8-3.88-4.42-3.88-4.42-1.27-1.19-.96-1.65-.96-1.69.58-.92,1.8-.15,1.84-.15-.62-.58-.27-.96-.27-.92,2.11-2.19,9.02-2,9.07-2,2.03.11,1.15,1.84,1.15,1.84l1.38,1.11c2.26,2.03-4.23,4.19-4.23,4.19-1.11.46-.3,2.15-.34,2.11.58,1.15,3.03-1.3,2.99-1.32,1.31-2.08,2.61.59,2.65.55,1.88,2.53-5.22,3.23-5.22,3.23h0ZM55.63,26.14c.29.03.63-.03.83-.25-.28-.58-.57-.7.14-.99.42-.18.85-.42,1.2-.72.29-.26.47-.55.68-.86.23-.33-.22-.34-.44-.33-1.16.02-2.38.47-3.48.78-.47.13-3.13.65-2.93,1.38.04.15.14.18.24.28,0,0,0,0,0,.01.12.11.86,1.46,1.52,1.46.46,0,.76-.96,1.27-1.02.32-.04.64.24.96.27h0ZM82.61,9.49s3.27-.8,3.3-.77c5.15-.46,3.92,2.88,3.96,2.84-.65,1.33-.69,3.45-.69,3.45-.58,3.53-6.76,5.03-6.76,5.03,0,0-.04,2.57.04,2.57,2.38-1.27,3.88-1.23,3.88-1.23,3.53-.38,1.65,4.65,1.69,4.65-.42,3.06-3.76,4.18-3.8,4.18-1.28.39-1.8,1.26-1.7,2.58.12,1.58-.17,3.15-.09,4.73.03.6-.55.92-.88,1.36-.42.56-.72,1.22-.79,1.91-.12,1.11.42,3.26-.68,4.06-1.69,1.23-1.96-3.49-1.96-3.49l-.03-13.14c0-.65-.03-1.3-.04-1.95-.07-3.11-.12-6.21-.19-9.32-.03-1.68-.06-3.35-.1-5.03-.01-.62-.04-1.25-.05-1.87-.05-2.26.04-4.23,1.68-5.98,1.67-1.78,3.97-2.04,6.24-2.4,1.31-.21,3.7-.85,4.05,1.05,0,.01.34,1.88.3,1.8.14,2.07-5.44,1.54-5.4,1.54-2.46.35-1.96,3.42-1.96,3.42h0ZM82.39,26.35s-.1,1.01,1.17,1.02c-.04.02,1.23.29,1.27-1.44.04.04.37-2.23-1.02-1.19-.06,0-1.41.54-1.42,1.62h0ZM83.14,16.74s2.19.46,2.31-1.61c0-.04.61-2.31-.5-1.84,0,.04-1.8.81-1.8.81,0,0-1.69,2.11,0,2.65ZM91.73,17.97c-.09,1.8.63,2,.59,1.96,1.04.27.96-1.54,1-1.65.35-1.8,2.19-7.83,2.19-7.87.88-1.69,2.46-1.8,2.46-1.84,2.72-.5,3.88-1.62,3.8-1.58.82-.65,1.26-.04,1.3,0,.38.42,3.73,2.73,3.76,2.73,1.54,1.07,1.38,1.88,1.38,1.88,0,0,0,8.1.04,8.18-.42,2.31,0,2.38,0,2.42,2.11.73,2.38-4.26,2.38-4.26,0-3.34.92-6.03.92-6.11,1.23-3.07-2.26-4.65-2.26-4.61,0-.13-1.27-.87-1.43-.99-.45-.34-.88-.69-1.3-1.06-.63-.55-1.73-1.26-2.09-2.02-.19-.4-.27-.8-.71-.98-.52-.21-1.19-.03-1.72,0-.76.05-1.64.45-2.33.76-1.21.54-2.43,1.06-3.62,1.64-.18.09-1.87.72-1.89.93-2.84,1.84-2.46,6.87-2.46,6.87,0,0,.04,5.65-.02,5.61h0ZM96.51,12.87s-1.23.46-.23,2.31c0-.04.35,1.61,3.5,1.46,0,.04,6.68.52,6.87-1.62,0,.05.23-1.34-2.65-1.78-.04-.01-5.03-1.13-7.49-.36h0ZM101.01,22.93s-.08,1.84,1.54,3.96c-.04.19,1.76,1.5,0,3.11,0,0-4.07,3.19-2.92,7.72-.03,0,.34,4.42,8.37,7.69,0,0,6.91,3.45,7.84,1.5-.04.04.42-.04-.84-.54.04,0-8.33-2.96-11.36-7.84,0,.08-1.58-3.27.61-5.07-.04.04,2.58-1.84,2.42-4.53-.03-.52.01-.97-.14-1.49-.16-.57-.4-1.1-.73-1.6-.31-.45-.81-.94-.98-1.47-.26-.81.02-2.06.8-2.49.68-.38,1.57-.38,2.18-.91.32-.27.41-.71.24-1.1-.38-.9-1.3-.99-2.14-1.05-1.31-.09-2.62-.02-3.93.08,0,.04-2.96.42-6.26.08-.08,0-2-1.34-2.53,1.84-.04-.04-.92,4.34,1.58,2.96l1.14-.55s-.03,1.67-3.75,4.74c-1.23,1.01-1.7,2.53-1.91,4.06-.32,2.31-.38,4.63-.74,6.93-.06.37-.38,1.25-.24,1.61.12.3.63.27.9.08.95-.68.83-2.17.84-3.16,0-.87.03-1.74.12-2.61.28-2.73,1.75-5.65,4.37-6.8-.04,0,2.96-.92,4.22-3.99,0,.04.31-2.3,1.31-1.15h0ZM15.23.22c-.59.68-.71,1.75-.78,2.62-.06.62-.09,1.25-.14,1.87-.16,1.71-4.3,4.03-4.34,4.04-1.07.54-2.06,1.2-2.99,1.94-1.43,1.14-2.69,2.48-3.8,3.94-.95,1.24-1.77,2.62-2.34,4.08-.16.42-.37,1.11-.47,1.55C.06,21.55-.03,22.55,0,23.88c.01.46,0,.94.17,1.38.09.24.24.47.46.61.14.08.61.26.77.16.21-.12.36-.55.38-.78.05-.6.18-1.11.18-1.08.55-1.44,1.09-4.11,1.12-4.14.17-.62.4-1.24.7-1.81.23-.44.51-.85.78-1.27,1.36-2.1,2.49-2.42,4.02-3.41.56-.36,1.08-.79,1.63-1.16.71-.47,1.44-.92,2.18-1.35.52-.31,1.05-.61,1.58-.91.44-.26.92-.45,1.36-.7.27-.15.51-.32.83-.26.33.06.59.3.89.43.95.43,1.87,1.03,2.77,1.57.1.06,1.42.81,1.49.87,1.43,1.03,2.27,1.91,2.48,2.12.9.93,1.71,2.01,2.2,3.2.49,1.21.65,2.54.87,3.82.07.41.05,1.06.23,1.43.49,1.01.07,1.1.1,1.16-.13.67.2.45.2.45.18-.38.47.07.47.04.26.42.62-.21.66-.21.44-.93-.07-1.16-.07-1.2-.65-.26-.31-.65-.31-.65.35-.27.59-.61.7-1.03.24-.87.16-1.85.02-2.73-.2-1.2-.44-2.43-.88-3.57-.5-1.31-1.36-2.45-2.29-3.49-.43-.47-2.06-2.12-2.68-2.5-2.69-1.64-4.31-2.98-4.27-2.95-.61-.63-.61-1.17-.61-1.17.31-1.49.03-2.31.03-2.31-.26-.68-.64-1.38-1.22-1.84-.22-.17-.54-.41-.87-.53-.31-.11-.63-.11-.86.15h0ZM11.37,13.06s-.92-.66-1.61,1.78c0-.02-.84,2.41-.2,3.37,0,0,.4.74,1.92,1.49,0,.02.32.13-.03.57,0,0-1.75,2.01-4.4,7.63-.01.02-2.43,4.06-3.41,11.12,0,0-.78,4.37-.06,7.96.03.02.25,1.22.86,1.43,0-.02-.01.63.55.73.22.07.41-.57.46-.69.08-.22.14-.44.23-.66.16-.41.09-.74.04-1.17-.05-.45-.09-.9-.09-1.35,0-.25.01-.5.04-.75.06-.7.24-1.39.36-2.08.11-.66.32-1.23.44-1.89.31-1.57.55-3.21,1-4.75.2-.68.42-1.38.74-2.01.01.01.36-1.39,1.19-3,1.18-2.26,2.95-5.12,4.11-7.48.02,0,.83-1.64,1.12-1.77.38-.16,1.91,1.19,4.47,4.2,0-.02,2.59,2.85,4.38,6.82,0,.02,1.9,3.95,2.04,10.52.02.02.1,4.47,1.01,2.93.01-.04.91-1.31.82-4.16.03-.02-.54-7.82-.91-9.55-.16-.8-.4-1.59-.64-2.37-.54-1.67-1.15-3.33-2.06-4.84-.64-1.07-1.45-2.05-2.19-3.06-.58-.79-1.21-1.53-1.89-2.23-.55-.58-1.13-1.13-1.73-1.65,0,0,.75-.95,1.93-.84-.05,0,1.72.27,1.83-1.69.02,0-.37-2.43-1.87-3.07,0,0-.37-.38-1.53.77,0,.03-2.73,2.07-2.73,2.07,0,0-.34.7-1.17.09,0,.02-1.66-.83-2.44-1.83-.03-.02-.57-.62-.57-.62h-.01Z"/>
  </g>
  <g>
    <g>
      <path class="st0" d="M158.08,32.94v-1.62h9.96v1.62h-4.1v11.12h-1.76v-11.12h-4.1Z"/>
      <path class="st0" d="M170.14,31.32h1.75v5.53h6.63v-5.53h1.75v12.73h-1.75v-5.52h-6.63v5.52h-1.75v-12.73Z"/>
      <path class="st0" d="M183.68,31.32h8.15v1.62h-6.4v3.77h6.07v1.68h-6.07v4.02h6.56v1.65h-8.31v-12.73Z"/>
      <path class="st0" d="M198.34,37.69c0-4.13,2.97-6.63,6.42-6.63,2.53,0,4.87,1.37,5.71,3.85l-1.62.65c-.7-1.75-2.22-2.86-4.11-2.86-2.51,0-4.55,1.91-4.55,5.04,0,3.45,2.45,4.93,4.73,4.93s3.8-1.45,4.41-3.49l1.62.57c-.91,2.86-3.09,4.57-6.09,4.57-3.8,0-6.51-2.69-6.51-6.64Z"/>
      <path class="st0" d="M213.09,31.32h1.75v5.53h6.63v-5.53h1.75v12.73h-1.75v-5.52h-6.63v5.52h-1.75v-12.73Z"/>
      <path class="st0" d="M226.64,31.32h1.75v12.73h-1.75v-12.73Z"/>
      <path class="st0" d="M231.81,31.32h1.84c2.22,3.22,4.44,6.38,6.68,9.75h.03v-9.75h1.75v12.73h-1.84c-2.2-3.17-4.44-6.29-6.68-9.6h-.03v9.6h-1.75v-12.73Z"/>
      <path class="st0" d="M245.54,31.32h8.15v1.62h-6.4v3.77h6.07v1.68h-6.07v4.02h6.56v1.65h-8.31v-12.73Z"/>
      <path class="st0" d="M255.54,40.58l1.63-.57c.52,1.93,1.86,2.71,3.27,2.71,1.29,0,2.61-.62,2.61-2.04s-1.27-1.73-2.43-2.09l-1.18-.36c-1.26-.39-3.46-1.21-3.46-3.61s2.02-3.56,4.26-3.56,3.82,1.24,4.31,3l-1.6.65c-.42-1.24-1.39-2.06-2.79-2.06s-2.33.74-2.33,1.83c0,1.37,1.57,1.89,2.47,2.19l1.29.41c1.31.42,3.36,1,3.36,3.36s-1.93,3.89-4.49,3.89c-2.17,0-4.23-1.13-4.91-3.75Z"/>
      <path class="st0" d="M267.47,31.32h8.15v1.62h-6.4v3.77h6.07v1.68h-6.07v4.02h6.56v1.65h-8.31v-12.73Z"/>
      <path class="st0" d="M282.76,39.25v-7.94h1.76v7.8c0,2.32.96,3.58,2.96,3.58s2.94-1.26,2.94-3.58v-7.8h1.76v7.94c0,2.46-1,5.08-4.73,5.08-3.53,0-4.69-2.35-4.69-5.08Z"/>
      <path class="st0" d="M295.46,31.32h1.85c2.22,3.22,4.44,6.38,6.68,9.75h.03v-9.75h1.75v12.73h-1.85c-2.2-3.17-4.44-6.29-6.68-9.6h-.03v9.6h-1.75v-12.73Z"/>
      <path class="st0" d="M309.18,31.32h1.75v12.73h-1.75v-12.73Z"/>
      <path class="st0" d="M312.93,31.32h1.86c1.04,2.55,2.94,7.4,4.16,10.63h.03c1.26-3.23,3.12-8.08,4.11-10.63h1.84l-5,12.73h-2.01l-5.01-12.73Z"/>
      <path class="st0" d="M326.97,31.32h8.15v1.62h-6.4v3.77h6.07v1.68h-6.07v4.02h6.56v1.65h-8.31v-12.73Z"/>
      <path class="st0" d="M337.97,31.32h4.67c1.62,0,4.29.88,4.29,3.93,0,2.29-1.4,3.58-3.1,3.84v.02c1.11,1.65,2.22,3.3,3.31,4.95h-1.98l-3.22-4.83h-2.24v4.83h-1.75v-12.73ZM342.38,37.67c1.42,0,2.71-.69,2.71-2.37s-1.35-2.38-2.76-2.38h-2.61v4.75h2.66Z"/>
      <path class="st0" d="M348.64,40.58l1.63-.57c.52,1.93,1.86,2.71,3.27,2.71,1.29,0,2.61-.62,2.61-2.04s-1.27-1.73-2.43-2.09l-1.18-.36c-1.26-.39-3.46-1.21-3.46-3.61s2.02-3.56,4.26-3.56,3.82,1.24,4.31,3l-1.6.65c-.42-1.24-1.39-2.06-2.79-2.06s-2.33.74-2.33,1.83c0,1.37,1.57,1.89,2.47,2.19l1.29.41c1.31.42,3.36,1,3.36,3.36s-1.93,3.89-4.49,3.89c-2.17,0-4.23-1.13-4.91-3.75Z"/>
      <path class="st0" d="M360.57,31.32h1.75v12.73h-1.75v-12.73Z"/>
      <path class="st0" d="M364.42,32.94v-1.62h9.96v1.62h-4.1v11.12h-1.76v-11.12h-4.1Z"/>
      <path class="st0" d="M379.78,39.53c-1.53-2.74-3.08-5.47-4.6-8.21h1.89l3.58,6.48h.03l3.58-6.48h1.89c-1.55,2.73-3.07,5.47-4.62,8.2v4.54h-1.75v-4.52Z"/>
      <path class="st0" d="M391.27,37.7c0-3.87,2.87-6.64,6.42-6.64s6.42,2.86,6.42,6.64-2.84,6.63-6.42,6.63-6.42-2.74-6.42-6.63ZM397.7,42.68c2.5,0,4.54-2.11,4.54-4.98s-2.02-5-4.54-5-4.57,2.09-4.57,5,2.09,4.98,4.57,4.98Z"/>
      <path class="st0" d="M406.72,31.32h8v1.65h-6.25v3.93h5.93v1.68h-5.93v5.47h-1.75v-12.73Z"/>
      <path class="st0" d="M421.21,31.32h1.75v5.53h6.63v-5.53h1.75v12.73h-1.75v-5.52h-6.63v5.52h-1.75v-12.73Z"/>
      <path class="st0" d="M433.96,37.7c0-3.87,2.87-6.64,6.42-6.64s6.42,2.86,6.42,6.64-2.84,6.63-6.42,6.63-6.42-2.74-6.42-6.63ZM440.39,42.68c2.5,0,4.54-2.11,4.54-4.98s-2.02-5-4.54-5-4.57,2.09-4.57,5,2.09,4.98,4.57,4.98Z"/>
      <path class="st0" d="M449.42,31.32h1.84c2.22,3.22,4.44,6.38,6.68,9.75h.03v-9.75h1.75v12.73h-1.84c-2.2-3.17-4.44-6.29-6.68-9.6h-.03v9.6h-1.75v-12.73Z"/>
      <path class="st0" d="M462.36,37.72c0-4.08,2.91-6.66,6.4-6.66,2.6,0,4.9,1.42,5.73,3.85l-1.62.65c-.72-1.75-2.2-2.86-4.1-2.86-2.48,0-4.57,1.88-4.57,5.04,0,3.51,2.55,4.93,4.75,4.93s3.85-1.47,4.11-3.56h-3.94v-1.47h5.68v6.4h-1.37c-.03-.8-.05-1.63-.08-2.43h-.08c-.88,1.71-2.43,2.71-4.64,2.71-3.67,0-6.29-2.74-6.29-6.61Z"/>
      <path class="st0" d="M482.17,31.32h1.75v6.24h.07l5.68-6.24h2.09l-5.09,5.55v.02l5.36,7.17h-2.14c-1.47-1.94-2.94-3.89-4.39-5.83h-.02c-.52.55-1.03,1.13-1.55,1.68v4.15h-1.75v-12.73Z"/>
      <path class="st0" d="M492.24,37.7c0-3.87,2.87-6.64,6.42-6.64s6.42,2.86,6.42,6.64-2.84,6.63-6.42,6.63-6.42-2.74-6.42-6.63ZM498.67,42.68c2.5,0,4.54-2.11,4.54-4.98s-2.03-5-4.54-5-4.57,2.09-4.57,5,2.09,4.98,4.57,4.98Z"/>
      <path class="st0" d="M507.69,31.32h1.85c2.22,3.22,4.44,6.38,6.68,9.75h.03v-9.75h1.75v12.73h-1.85c-2.2-3.17-4.44-6.29-6.68-9.6h-.03v9.6h-1.75v-12.73Z"/>
      <path class="st0" d="M520.63,37.72c0-4.08,2.91-6.66,6.4-6.66,2.6,0,4.9,1.42,5.73,3.85l-1.62.65c-.72-1.75-2.2-2.86-4.1-2.86-2.48,0-4.57,1.88-4.57,5.04,0,3.51,2.55,4.93,4.75,4.93s3.85-1.47,4.12-3.56h-3.94v-1.47h5.68v6.4h-1.37c-.03-.8-.05-1.63-.08-2.43h-.08c-.88,1.71-2.43,2.71-4.64,2.71-3.67,0-6.29-2.74-6.29-6.61Z"/>
      <path class="st0" d="M159.4,53.08h4.69c4.25,0,6.04,2.84,6.04,6.29,0,3.79-2.19,6.45-5.89,6.45h-4.83v-12.73ZM164.14,64.2c2.35,0,4.15-1.5,4.15-4.72,0-3.53-2.15-4.78-4.62-4.78h-2.51v9.5h2.99Z"/>
      <path class="st0" d="M172.78,53.08h8.15v1.62h-6.4v3.77h6.07v1.68h-6.07v4.02h6.56v1.65h-8.31v-12.73Z"/>
      <path class="st0" d="M183.78,53.08h4.67c1.71,0,4.29.88,4.29,3.9s-2.65,4.05-4.13,4.05h-3.09v4.78h-1.75v-12.73ZM188.19,59.35c1.42,0,2.71-.64,2.71-2.34s-1.35-2.32-2.76-2.32h-2.61v4.65h2.66Z"/>
      <path class="st0" d="M197.72,53.08h2.01l5.01,12.73h-1.88l-1.57-3.92h-5.21c-.52,1.31-1.01,2.61-1.53,3.92h-1.85l5.01-12.73ZM200.68,60.21c-.64-1.6-1.32-3.36-1.94-5.04h-.03l-1.98,5.04h3.95Z"/>
      <path class="st0" d="M206.74,53.08h4.67c1.62,0,4.29.88,4.29,3.93,0,2.29-1.4,3.58-3.1,3.84v.02c1.11,1.65,2.22,3.3,3.31,4.95h-1.98l-3.22-4.83h-2.24v4.83h-1.75v-12.73ZM211.15,59.43c1.42,0,2.71-.69,2.71-2.37s-1.35-2.38-2.76-2.38h-2.61v4.75h2.66Z"/>
      <path class="st0" d="M216.91,54.7v-1.62h9.96v1.62h-4.1v11.12h-1.76v-11.12h-4.1Z"/>
      <path class="st0" d="M228.97,53.08h2.16c1.52,3.36,3.04,6.74,4.54,10.11h.03c1.52-3.36,3.02-6.74,4.54-10.11h2.17v12.73h-1.78v-9.4h-.07c-1.39,3.13-2.79,6.27-4.18,9.4h-1.4c-1.39-3.13-2.79-6.27-4.18-9.4h-.05v9.4h-1.78v-12.73Z"/>
      <path class="st0" d="M245.81,53.08h8.15v1.62h-6.4v3.77h6.07v1.68h-6.07v4.02h6.56v1.65h-8.31v-12.73Z"/>
      <path class="st0" d="M256.81,53.08h1.84c2.22,3.22,4.44,6.38,6.68,9.75h.03v-9.75h1.75v12.73h-1.85c-2.2-3.17-4.44-6.29-6.68-9.6h-.03v9.6h-1.75v-12.73Z"/>
      <path class="st0" d="M269.21,54.7v-1.62h9.96v1.62h-4.1v11.12h-1.76v-11.12h-4.1Z"/>
      <path class="st0" d="M284.34,59.46c0-3.87,2.87-6.64,6.42-6.64s6.42,2.86,6.42,6.64-2.84,6.63-6.42,6.63-6.42-2.74-6.42-6.63ZM290.78,64.44c2.5,0,4.54-2.11,4.54-4.98s-2.02-5-4.54-5-4.57,2.09-4.57,5,2.09,4.98,4.57,4.98Z"/>
      <path class="st0" d="M299.8,53.08h8v1.65h-6.25v3.93h5.93v1.68h-5.93v5.47h-1.75v-12.73Z"/>
      <path class="st0" d="M313.51,59.45c0-4.13,2.97-6.63,6.42-6.63,2.53,0,4.87,1.37,5.71,3.85l-1.62.65c-.7-1.75-2.22-2.86-4.11-2.86-2.51,0-4.56,1.91-4.56,5.04,0,3.45,2.45,4.93,4.73,4.93s3.8-1.45,4.41-3.49l1.62.57c-.91,2.86-3.09,4.57-6.09,4.57-3.8,0-6.51-2.69-6.51-6.64Z"/>
      <path class="st0" d="M328.26,53.08h1.75v5.53h6.63v-5.53h1.75v12.73h-1.75v-5.52h-6.63v5.52h-1.75v-12.73Z"/>
      <path class="st0" d="M341.81,53.08h1.75v12.73h-1.75v-12.73Z"/>
      <path class="st0" d="M346.98,53.08h1.84c2.22,3.22,4.44,6.38,6.68,9.75h.03v-9.75h1.75v12.73h-1.84c-2.2-3.17-4.44-6.29-6.68-9.6h-.03v9.6h-1.75v-12.73Z"/>
      <path class="st0" d="M360.7,53.08h8.15v1.62h-6.4v3.77h6.07v1.68h-6.07v4.02h6.56v1.65h-8.31v-12.73Z"/>
      <path class="st0" d="M370.71,62.34l1.63-.57c.52,1.93,1.86,2.71,3.27,2.71,1.29,0,2.61-.62,2.61-2.04s-1.27-1.73-2.43-2.09l-1.18-.36c-1.26-.39-3.46-1.21-3.46-3.61s2.02-3.56,4.26-3.56,3.82,1.24,4.31,3l-1.6.65c-.42-1.24-1.39-2.06-2.79-2.06s-2.33.74-2.33,1.83c0,1.37,1.57,1.89,2.47,2.19l1.29.41c1.31.42,3.36,1,3.36,3.36s-1.93,3.89-4.49,3.89c-2.17,0-4.23-1.13-4.92-3.75Z"/>
      <path class="st0" d="M382.64,53.08h8.15v1.62h-6.4v3.77h6.07v1.68h-6.07v4.02h6.56v1.65h-8.31v-12.73Z"/>
      <path class="st0" d="M398.08,53.08h1.75v11.09h6.09v1.65h-7.84v-12.73Z"/>
      <path class="st0" d="M411.67,53.08h2.01l5.01,12.73h-1.88l-1.57-3.92h-5.21c-.52,1.31-1.01,2.61-1.54,3.92h-1.84l5.01-12.73ZM414.63,60.21c-.64-1.6-1.32-3.36-1.94-5.04h-.03l-1.98,5.04h3.95Z"/>
      <path class="st0" d="M420.7,53.08h1.84c2.22,3.22,4.44,6.38,6.68,9.75h.03v-9.75h1.75v12.73h-1.84c-2.2-3.17-4.44-6.29-6.68-9.6h-.03v9.6h-1.75v-12.73Z"/>
      <path class="st0" d="M433.64,59.48c0-4.08,2.91-6.66,6.4-6.66,2.6,0,4.9,1.42,5.73,3.85l-1.62.65c-.72-1.75-2.2-2.86-4.1-2.86-2.48,0-4.57,1.88-4.57,5.04,0,3.51,2.55,4.93,4.75,4.93s3.85-1.47,4.11-3.56h-3.93v-1.47h5.68v6.4h-1.37c-.03-.8-.05-1.63-.08-2.43h-.08c-.88,1.71-2.43,2.71-4.64,2.71-3.67,0-6.29-2.74-6.29-6.61Z"/>
      <path class="st0" d="M448.86,61.01v-7.93h1.76v7.8c0,2.32.96,3.58,2.96,3.58s2.94-1.26,2.94-3.58v-7.8h1.76v7.93c0,2.46-1,5.08-4.73,5.08-3.53,0-4.69-2.35-4.69-5.08Z"/>
      <path class="st0" d="M464.86,53.08h2.01l5.01,12.73h-1.88l-1.57-3.92h-5.21c-.52,1.31-1.01,2.61-1.53,3.92h-1.84l5.01-12.73ZM467.81,60.21c-.64-1.6-1.32-3.36-1.94-5.04h-.03l-1.98,5.04h3.95Z"/>
      <path class="st0" d="M472.72,59.48c0-4.08,2.91-6.66,6.4-6.66,2.6,0,4.9,1.42,5.73,3.85l-1.62.65c-.72-1.75-2.2-2.86-4.1-2.86-2.48,0-4.57,1.88-4.57,5.04,0,3.51,2.55,4.93,4.75,4.93s3.85-1.47,4.11-3.56h-3.93v-1.47h5.68v6.4h-1.37c-.03-.8-.05-1.63-.08-2.43h-.08c-.88,1.71-2.43,2.71-4.64,2.71-3.67,0-6.29-2.74-6.29-6.61Z"/>
      <path class="st0" d="M488.1,53.08h8.15v1.62h-6.4v3.77h6.07v1.68h-6.07v4.02h6.56v1.65h-8.31v-12.73Z"/>
      <path class="st0" d="M502.68,62.83c0-1.73,1.31-2.81,2.63-3.66-.82-.88-1.71-2.03-1.71-3.33,0-1.68,1.39-3.02,3.35-3.02,2.09,0,3.3,1.54,3.3,3.05s-1.29,2.69-2.55,3.49l2.29,2.4c.33-.7.57-1.5.77-2.35l1.57.33c-.29,1.19-.69,2.29-1.17,3.2l2.74,2.86h-2.16l-1.53-1.58c-.95,1.17-2.14,1.88-3.66,1.88-2.12,0-3.85-1.24-3.85-3.27ZM506.64,64.56c1.03,0,1.84-.57,2.47-1.45l-2.81-2.89c-1.03.67-1.88,1.32-1.88,2.42,0,1.18.98,1.93,2.22,1.93ZM506.75,58.37c1.08-.73,1.75-1.32,1.75-2.38s-.69-1.67-1.6-1.67c-.87,0-1.53.57-1.53,1.52s.65,1.75,1.39,2.53Z"/>
      <path class="st0" d="M519.33,53.08h1.75v11.09h6.09v1.65h-7.84v-12.73Z"/>
      <path class="st0" d="M529.27,53.08h1.75v12.73h-1.75v-12.73Z"/>
      <path class="st0" d="M533.12,54.7v-1.62h9.96v1.62h-4.1v11.12h-1.76v-11.12h-4.1Z"/>
      <path class="st0" d="M545.18,53.08h8.15v1.62h-6.4v3.77h6.07v1.68h-6.07v4.02h6.56v1.65h-8.31v-12.73Z"/>
      <path class="st0" d="M556.18,53.08h4.67c1.62,0,4.29.88,4.29,3.93,0,2.29-1.4,3.58-3.1,3.84v.02c1.11,1.65,2.22,3.3,3.31,4.95h-1.98l-3.22-4.83h-2.24v4.83h-1.75v-12.73ZM560.59,59.43c1.42,0,2.71-.69,2.71-2.37s-1.36-2.38-2.76-2.38h-2.61v4.75h2.66Z"/>
      <path class="st0" d="M571.46,53.08h2.01l5.01,12.73h-1.88l-1.57-3.92h-5.21c-.52,1.31-1.01,2.61-1.54,3.92h-1.84l5.01-12.73ZM574.41,60.21c-.64-1.6-1.32-3.36-1.94-5.04h-.03l-1.98,5.04h3.95Z"/>
      <path class="st0" d="M577.67,54.7v-1.62h9.96v1.62h-4.1v11.12h-1.76v-11.12h-4.1Z"/>
      <path class="st0" d="M589.59,61.01v-7.93h1.76v7.8c0,2.32.96,3.58,2.96,3.58s2.94-1.26,2.94-3.58v-7.8h1.76v7.93c0,2.46-1,5.08-4.73,5.08-3.53,0-4.69-2.35-4.69-5.08Z"/>
      <path class="st0" d="M602.28,53.08h4.67c1.62,0,4.29.88,4.29,3.93,0,2.29-1.4,3.58-3.1,3.84v.02c1.11,1.65,2.22,3.3,3.31,4.95h-1.98l-3.22-4.83h-2.24v4.83h-1.75v-12.73ZM606.69,59.43c1.42,0,2.71-.69,2.71-2.37s-1.36-2.38-2.76-2.38h-2.61v4.75h2.66Z"/>
      <path class="st0" d="M614,53.08h8.15v1.62h-6.4v3.77h6.07v1.68h-6.07v4.02h6.56v1.65h-8.31v-12.73Z"/>
    </g>
    <g>
      <path class="st0" d="M169.51,20.81h-1.5v-.82h-6.74v.82h-1.5v-7c-.57.28-1.18.54-1.81.8l-.83-1.34c2.58-.85,4.39-1.78,5.45-2.81h-5.04v-1.47h6.32v-1.18c-1.47.08-3.05.13-4.73.13l-.46-1.37c4.41,0,8.11-.28,11.12-.83l.72,1.22c-1.47.33-3.18.59-5.14.75v1.27h6.27v1.47h-5.27c2.19.9,4.1,1.86,5.73,2.91l-.98,1.21c-.51-.36-1.03-.72-1.58-1.06v7.3ZM160.4,13.48h3.44v-2.71c-.8.98-1.94,1.89-3.44,2.71ZM168,18.62v-3.77h-6.74v1.24h5.88v1.32h-5.88v1.21h6.74ZM165.34,13.48h4.11c-1.21-.75-2.58-1.47-4.11-2.16v2.16Z"/>
      <path class="st0" d="M178.45,12.37l-1.08,1.09c-.65-.75-1.55-1.53-2.69-2.38l1.08-1.06c1.08.78,1.98,1.57,2.69,2.35ZM178.41,15.42c-.6,1.93-1.29,3.72-2.04,5.39l-1.55-.69c.83-1.71,1.57-3.46,2.19-5.26l1.4.56ZM178.95,8.47l-1.09,1.08c-.69-.77-1.65-1.6-2.89-2.48l1.09-1.06c1.14.82,2.11,1.65,2.89,2.47ZM181.38,7.41v-1.6h1.5v1.6h2.38v-1.6h1.5v1.6h1.94v1.42h-1.94v1.58h2.47v1.44h-2.42c.65.95,1.65,1.71,2.96,2.27l-.65,1.34c-.78-.42-1.47-.88-2.02-1.37v3.2h-4.95v1.24c0,.38.21.57.67.57h4.18c.28-.02.47-.13.57-.34.08-.16.16-.62.23-1.37l1.47.47c-.1.82-.21,1.4-.34,1.76-.21.57-.69.87-1.44.9h-5.27c-1.06,0-1.58-.47-1.58-1.39v-4.47c-.49.42-1.03.82-1.62,1.18l-.8-1.31c1.47-.82,2.5-1.7,3.09-2.68h-2.35v-1.44h2.43v-1.58h-1.8v-1.42h1.8ZM186.33,13.32c-.42-.46-.77-.95-1.03-1.47h-2.53c-.23.52-.52,1.01-.88,1.47h4.44ZM185.65,15.98v-1.37h-3.49v1.37h3.49ZM185.27,10.41v-1.58h-2.38v1.58h2.38Z"/>
      <path class="st0" d="M200.46,5.69v2.82h5.81v7.89h-1.55v-.93h-4.26v5.47h-1.6v-5.47h-4.25v.93h-1.55v-7.89h5.8v-2.82h1.6ZM198.86,13.95v-3.92h-4.25v3.92h4.25ZM204.72,13.95v-3.92h-4.26v3.92h4.26Z"/>
      <path class="st0" d="M216.59,8.39c-.42-.78-.95-1.52-1.57-2.22l1.55-.57c.59.78,1.14,1.71,1.65,2.79h6.19v1.53h-2.5c-.78,2.48-1.94,4.56-3.48,6.24,1.7,1.39,3.82,2.55,6.33,3.46l-.87,1.31c-2.63-.98-4.82-2.2-6.55-3.67-1.85,1.63-4.11,2.84-6.81,3.62l-.83-1.37c2.65-.69,4.82-1.76,6.55-3.25-1.8-1.8-3.05-3.92-3.76-6.33h-2.5v-1.53h6.58ZM217.34,15.19c1.32-1.45,2.32-3.22,2.97-5.27h-6.32c.69,2.01,1.8,3.77,3.35,5.27Z"/>
      <path class="st0" d="M233.79,9.92c.1-.87.16-1.78.18-2.73v-1.42h1.57v1.06c0,1.08-.06,2.11-.2,3.09h6.63v1.5h-6.24c1.14,3.49,3.35,6.19,6.58,8.1l-.96,1.26c-3.13-1.93-5.34-4.62-6.58-8.08-1.08,3.74-3.28,6.48-6.6,8.23l-1-1.31c3.36-1.63,5.49-4.38,6.35-8.2h-5.99v-1.5h6.25Z"/>
      <path class="st0" d="M256.75,14.15v1.14c-1.06.46-2.25.91-3.56,1.34v.28h6.29v1.26h-6.29v1.19c0,.91-.49,1.39-1.47,1.39h-1.88l-.34-1.26c.54.03,1.13.05,1.76.05.34,0,.52-.21.52-.62v-.75h-6.66v-1.26h6.66v-.82c1.04-.31,1.91-.57,2.58-.8h-6.71v-1.14h9.09ZM247.62,10.3h2.29v1.06h-2.19l.06.87h8.98l.07-.87h-2.17v-1.06h2.25l.05-.8h-2.25v-1.06h2.32l.07-.91h-2.53v-1.24h3.98l-.38,5.94h1.13v2.74h-1.49v-1.6h-11.04v1.58h-1.49v-2.73h1.11l-.42-5.65c1.18-.13,2.35-.38,3.54-.73l.49,1.18c-.54.2-1.4.39-2.6.6l.06.82h2.38v1.06h-2.3l.07.8ZM252.33,6.96c.33-.29.62-.6.9-.93l.87.52c-.31.38-.6.7-.9,1,.36.26.7.52,1.01.78l-.65.65.73.47c-.33.39-.65.73-.98,1.01.39.26.73.54,1.06.82l-.73.73c-.34-.31-.72-.62-1.14-.91-.44.29-.98.59-1.62.9l-.57-.91c.44-.16.87-.36,1.27-.59-.34-.23-.7-.44-1.06-.64l.72-.7c.42.23.83.47,1.21.72.33-.28.62-.59.91-.91-.29-.26-.62-.52-.98-.78-.46.31-1.01.64-1.68.96l-.57-.91c.49-.16.95-.39,1.39-.65-.36-.24-.75-.49-1.14-.72l.7-.67c.44.26.87.51,1.26.77Z"/>
      <path class="st0" d="M270.64,5.69v2.82h5.81v7.89h-1.55v-.93h-4.26v5.47h-1.6v-5.47h-4.25v.93h-1.55v-7.89h5.8v-2.82h1.6ZM269.04,13.95v-3.92h-4.25v3.92h4.25ZM274.9,13.95v-3.92h-4.26v3.92h4.26Z"/>
      <path class="st0" d="M294.27,20.84h-1.53v-.62h-10.71v.62h-1.53V6.33h13.78v14.51ZM292.74,18.79V7.77h-10.71v11.02h10.71ZM287.15,16.88c-1.27.29-2.71.56-4.31.75l-.2-1.32c1.71-.16,3.22-.36,4.51-.62v1.19ZM287.64,9.27c-.02-.41-.02-.82-.02-1.24h1.39c0,.44,0,.85.02,1.24h1.19c-.15-.38-.31-.72-.47-1.04l1.21-.2c.15.36.29.78.44,1.24h.82v1.37h-3.15c.03,1.14.11,2.09.25,2.81.03.26.06.49.1.72.42-.88.78-1.88,1.08-3l1.14.59c-.49,1.73-1.08,3.15-1.76,4.29,0,.03.02.07.03.08.23.59.46.88.65.88.23,0,.47-.65.77-1.96l1.11.62c-.46,1.83-1.04,2.76-1.73,2.76-.51,0-1-.34-1.45-1.03-.07-.08-.11-.16-.15-.24-.49.59-1,1.06-1.53,1.44l-.77-1.14c.62-.42,1.19-1,1.7-1.7-.16-.46-.29-.98-.41-1.53-.2-.95-.33-2.14-.39-3.58h-5.01v-1.37h4.96ZM287.07,11.54v3.51h-4v-3.51h4ZM285.81,12.63h-1.49v1.32h1.49v-1.32Z"/>
      <path class="st0" d="M299.8,7.63c-.26-.54-.54-1.06-.87-1.55l1.44-.42c.39.73.7,1.39.9,1.98h1.65v1.4h-5.35v-1.4h2.24ZM299.44,20.81h-1.42v-5.96h4.56v5.71h-1.39v-.69h-1.75v.93ZM302.41,10.12v1.34h-4.26v-1.34h4.26ZM302.41,12.42v1.34h-4.26v-1.34h4.26ZM301.19,16.22h-1.75v2.25h1.75v-2.25ZM311.93,6.3v1.39h-4.15l-.29,1.5h3.76v3.15h1.14v1.42h-9.06v-1.42h2.09l.36-1.81h-1.76v-1.34h2.02l.29-1.5h-2.89v-1.39h8.49ZM311.49,20.86h-1.44v-.65h-4.49v.65h-1.47v-5.81h7.4v5.81ZM310.05,18.83v-2.42h-4.49v2.42h4.49ZM309.82,12.34v-1.81h-2.6l-.36,1.81h2.96Z"/>
      <path class="st0" d="M321.83,7.62c-.23-.52-.49-1.04-.78-1.55l1.63-.44c.36.72.62,1.37.8,1.96l-.08.03h6.45v1.45h-14.74v-1.45h6.73ZM328.1,20.86h-1.52v-.65h-8.23v.65h-1.52v-5.5h11.26v5.5ZM327.77,10.23v1.39h-10.6v-1.39h10.6ZM327.77,12.73v1.39h-10.6v-1.39h10.6ZM326.58,18.74v-1.91h-8.23v1.91h8.23Z"/>
      <path class="st0" d="M333.84,7.86v-1.52h9.99v1.01c-.29,1.31-.6,2.45-.9,3.43h3.25v.91c-.47,2.17-1.45,4.02-2.94,5.52,1.18.83,2.55,1.58,4.11,2.25l-1.03,1.39c-1.67-.77-3.1-1.62-4.29-2.56-1.42,1.09-3.15,1.98-5.21,2.65l-.9-1.44c1.91-.64,3.51-1.4,4.82-2.32-1.29-1.26-2.29-2.64-2.99-4.16-.59,3.36-1.94,5.96-4.07,7.77l-1.19-1.04c2.63-2.2,3.97-5.73,4.02-10.56v-1.32h-2.68ZM344.55,12.21h-3.54c.34-1,.72-2.45,1.13-4.34h-4.05v1.32c0,.29-.02.57-.02.85.59,2.37,1.88,4.42,3.89,6.17,1.24-1.16,2.11-2.5,2.6-4Z"/>
      <path class="st0" d="M356.93,8.39c-.42-.78-.95-1.52-1.57-2.22l1.55-.57c.59.78,1.14,1.71,1.65,2.79h6.19v1.53h-2.5c-.78,2.48-1.94,4.56-3.48,6.24,1.7,1.39,3.82,2.55,6.34,3.46l-.87,1.31c-2.63-.98-4.82-2.2-6.55-3.67-1.84,1.63-4.11,2.84-6.81,3.62l-.83-1.37c2.64-.69,4.82-1.76,6.55-3.25-1.8-1.8-3.05-3.92-3.75-6.33h-2.5v-1.53h6.58ZM357.69,15.19c1.32-1.45,2.32-3.22,2.97-5.27h-6.32c.69,2.01,1.8,3.77,3.35,5.27Z"/>
      <path class="st0" d="M379.56,14.15v1.14c-1.06.46-2.25.91-3.56,1.34v.28h6.29v1.26h-6.29v1.19c0,.91-.49,1.39-1.47,1.39h-1.88l-.34-1.26c.54.03,1.13.05,1.76.05.34,0,.52-.21.52-.62v-.75h-6.66v-1.26h6.66v-.82c1.04-.31,1.91-.57,2.58-.8h-6.71v-1.14h9.09ZM370.43,10.3h2.29v1.06h-2.19l.07.87h8.98l.07-.87h-2.17v-1.06h2.25l.05-.8h-2.25v-1.06h2.32l.07-.91h-2.53v-1.24h3.98l-.38,5.94h1.13v2.74h-1.49v-1.6h-11.04v1.58h-1.49v-2.73h1.11l-.42-5.65c1.18-.13,2.35-.38,3.54-.73l.49,1.18c-.54.2-1.4.39-2.6.6l.07.82h2.38v1.06h-2.3l.07.8ZM375.13,6.96c.33-.29.62-.6.9-.93l.87.52c-.31.38-.6.7-.9,1,.36.26.7.52,1.01.78l-.65.65.73.47c-.33.39-.65.73-.98,1.01.39.26.73.54,1.06.82l-.74.73c-.34-.31-.72-.62-1.14-.91-.44.29-.98.59-1.62.9l-.57-.91c.44-.16.87-.36,1.27-.59-.34-.23-.7-.44-1.06-.64l.72-.7c.42.23.83.47,1.21.72.33-.28.62-.59.91-.91-.29-.26-.62-.52-.98-.78-.46.31-1.01.64-1.68.96l-.57-.91c.49-.16.95-.39,1.39-.65-.36-.24-.75-.49-1.14-.72l.7-.67c.44.26.87.51,1.26.77Z"/>
      <path class="st0" d="M390.42,16.97c-1.09,1.35-2.45,2.55-4.07,3.56l-.95-1.24c1.57-.91,2.89-1.99,3.97-3.23l1.04.91ZM390.23,20.7l-.33-1.45c.57.07,1.13.1,1.67.1.33,0,.49-.2.49-.57v-3.35c-1.62.1-3.38.18-5.27.26l-.44-1.35c.49-.03.93-.13,1.34-.28,1.4-.44,2.96-1.13,4.65-2.06-1.68.11-3.35.21-5.01.29l-.23-1.31c2.11-.54,4.18-1.57,6.24-3.09l-.2.05c-1.39.36-3.33.75-5.85,1.18l-.78-1.29c1.93-.21,3.74-.52,5.42-.91,1.4-.33,2.73-.73,3.95-1.19l1.34.83c-1.26.54-2.53.98-3.82,1.32l1.13.8c-1.22.93-2.51,1.71-3.85,2.35,1.27-.1,2.55-.21,3.8-.31.67-.42,1.36-.88,2.07-1.37l1.49.72c-2.86,1.86-5.36,3.27-7.49,4.2,2.32-.13,4.38-.29,6.14-.47-.36-.49-.72-.96-1.09-1.42l1.13-.7c1.29,1.54,2.29,2.87,2.97,4.02l-1.22.83c-.28-.49-.59-1-.93-1.52-1.18.11-2.48.23-3.92.33v3.82c0,1.03-.51,1.55-1.52,1.55h-1.86ZM399.66,19.49l-1.09,1.08c-.92-1.14-2.19-2.37-3.82-3.69l1.01-.96c1.54,1.19,2.84,2.38,3.9,3.58Z"/>
    </g>
  </g>
</svg>